<?xml version="1.0" encoding="utf-8"?>
<!-- Generator: Adobe Illustrator 23.0.1, SVG Export Plug-In . SVG Version: 6.00 Build 0)  -->
<svg version="1.1" id="Capa_1" xmlns="http://www.w3.org/2000/svg" xmlns:xlink="http://www.w3.org/1999/xlink" x="0px" y="0px"
	 viewBox="0 0 250 250" style="enable-background:new 0 0 250 250;" xml:space="preserve">
<style type="text/css">
	.st0{fill:#FFBE00;}
	.st1{enable-background:new    ;}
	.st2{display:none;}
	.st3{display:inline;}
	.st4{font-family:'Montserrat-Black';}
	.st5{font-size:16.6298px;}
</style>
<g id="Guias">
</g>
<g id="Fondo">
	<g>
		<g>
			<path class="st0" d="M125,232.5L125,232.5c-59.37,0-107.5-48.13-107.5-107.5S65.63,17.5,125,17.5S232.5,65.63,232.5,125
				S184.37,232.5,125,232.5"/>
		</g>
		<g>
			<path class="st0" d="M125,245C58.83,245,5,191.17,5,125S58.83,5,125,5s120,53.83,120,120S191.17,245,125,245z M125,10
				C61.59,10,10,61.59,10,125s51.59,115,115,115s115-51.59,115-115S188.41,10,125,10z"/>
		</g>
	</g>
</g>
<g id="CARNICERÃAS">
	<g class="st1">
		<path d="M62.92,194.34c0-3.58,2.74-6.09,6.49-6.09c2.28,0,4.08,0.83,5.22,2.33l-2.48,2.21c-0.68-0.86-1.5-1.36-2.54-1.36
			c-1.63,0-2.73,1.13-2.73,2.91s1.1,2.91,2.73,2.91c1.05,0,1.86-0.5,2.54-1.36l2.48,2.21c-1.15,1.5-2.94,2.33-5.22,2.33
			C65.67,200.43,62.92,197.92,62.92,194.34z"/>
		<path d="M83.53,198.13H79.1l-0.78,2.03h-3.99l5.09-11.64h3.86l5.09,11.64h-4.06L83.53,198.13z M82.45,195.31l-1.13-2.93
			l-1.13,2.93H82.45z"/>
		<path d="M93.99,197.24h-1.06v2.93H89v-11.64h5.6c3.24,0,5.31,1.7,5.31,4.39c0,1.68-0.8,2.94-2.2,3.66l2.44,3.59h-4.19
			L93.99,197.24z M94.35,191.55h-1.43v2.73h1.43c1.08,0,1.6-0.52,1.6-1.36C95.95,192.06,95.44,191.55,94.35,191.55z"/>
		<path d="M112.86,188.52v11.64h-3.23l-4.42-5.29v5.29h-3.83v-11.64h3.23l4.42,5.29v-5.29H112.86z"/>
		<path d="M114.76,188.52h3.92v11.64h-3.92V188.52z"/>
		<path d="M120.11,194.34c0-3.58,2.74-6.09,6.49-6.09c2.28,0,4.08,0.83,5.22,2.33l-2.48,2.21c-0.68-0.86-1.5-1.36-2.54-1.36
			c-1.63,0-2.73,1.13-2.73,2.91s1.1,2.91,2.73,2.91c1.05,0,1.86-0.5,2.54-1.36l2.48,2.21c-1.15,1.5-2.94,2.33-5.22,2.33
			C122.86,200.43,120.11,197.92,120.11,194.34z"/>
		<path d="M142.63,197.2v2.96h-9.68v-11.64h9.46v2.96h-5.6v1.36h4.92v2.83h-4.92v1.53H142.63z"/>
		<path d="M149.13,197.24h-1.06v2.93h-3.92v-11.64h5.61c3.24,0,5.31,1.7,5.31,4.39c0,1.68-0.8,2.94-2.2,3.66l2.45,3.59h-4.19
			L149.13,197.24z M149.5,191.55h-1.43v2.73h1.43c1.08,0,1.6-0.52,1.6-1.36C151.09,192.06,150.58,191.55,149.5,191.55z"/>
		<path d="M156.53,188.52h3.92v11.64h-3.92V188.52z M158.94,184.91h3.58l-3.28,2.66h-2.5L158.94,184.91z"/>
		<path d="M170.28,198.13h-4.42l-0.78,2.03h-3.99l5.09-11.64h3.86l5.09,11.64h-4.06L170.28,198.13z M169.2,195.31l-1.13-2.93
			l-1.13,2.93H169.2z"/>
		<path d="M175.02,199.23l1.26-2.86c1.1,0.65,2.56,1.06,3.84,1.06c1.11,0,1.51-0.23,1.51-0.63c0-1.46-6.44-0.28-6.44-4.62
			c0-2.16,1.81-3.92,5.42-3.92c1.56,0,3.18,0.33,4.39,1.01l-1.18,2.84c-1.15-0.58-2.23-0.87-3.24-0.87c-1.15,0-1.51,0.33-1.51,0.73
			c0,1.4,6.44,0.23,6.44,4.52c0,2.13-1.81,3.92-5.42,3.92C178.15,200.43,176.19,199.95,175.02,199.23z"/>
	</g>
	<g>
		<g>
			<path d="M119.09,135.21c17.59,0,42.93-13.02,57.5-27.6c5.33-5.33,8.51-10.16,10.05-14.65l-44.78-44.78
				c-4.49,1.53-9.32,4.71-14.65,10.05c-19.52,19.52-36.27,58.38-22.63,72.02C108.03,133.7,113.11,135.21,119.09,135.21
				L119.09,135.21z M152.42,105.9L152.42,105.9c-1.41-1.41-1.41-3.7,0-5.11l0,0c1.41-1.41,3.7-1.41,5.11,0l0,0
				c1.41,1.41,1.41,3.7,0,5.11l0,0C156.12,107.31,153.83,107.31,152.42,105.9z M154.64,85.34L154.64,85.34
				c1.41,1.41,1.41,3.7,0,5.11l0,0c-1.41,1.41-3.7,1.41-5.11,0l0,0c-1.41-1.41-1.41-3.7,0-5.11l0,0
				C150.94,83.93,153.23,83.93,154.64,85.34z M142.92,97.06L142.92,97.06c1.41,1.41,1.41,3.7,0,5.11l0,0c-1.41,1.41-3.7,1.41-5.11,0
				l0,0c-1.41-1.41-1.41-3.7,0-5.11l0,0C139.22,95.65,141.51,95.65,142.92,97.06z"/>
			<path d="M108.96,140.99c-3.43-1.08-6.97-3.11-9.49-5.63c-2.53-2.53-4.55-6.06-5.63-9.5l-14.1,14.1
				c-1.68-1.06-3.63-1.62-5.67-1.62c-2.86,0-5.55,1.11-7.56,3.13c-4.17,4.17-4.17,10.96,0,15.13c2.36,2.36,5.56,3.39,8.65,3.07
				c-0.31,3.09,0.71,6.29,3.07,8.65c2.09,2.09,4.82,3.13,7.56,3.13s5.48-1.04,7.56-3.13c2.02-2.02,3.13-4.71,3.13-7.57
				c0-2.04-0.57-3.99-1.62-5.67L108.96,140.99z"/>
		</g>
	</g>
</g>
<g id="POLLERIAS" class="st2">
	<text transform="matrix(1 0 0 1 73.9814 200.1633)" class="st3 st4 st5">POLLERIAS</text>
	<g class="st3">
		<path d="M145.8,102c1.61,9.66-0.9,18.38-7.06,24.54c-4.93,4.92-11.49,7.53-18.99,7.53c-1.81,0-3.68-0.16-5.55-0.47
			c-8.28-1.38-16.46-5.76-23.04-12.35c-5.89-5.89-9.97-12.99-11.77-20.25c-6.74,6.28-10.46,13.9-10.46,21.84
			c0,8.26,3.93,16.06,11.08,22.43H178c2.04-3.23,3.08-6.97,3.08-11.22c0-10.02-5.82-21.69-15.57-31.23
			c-7.34-7.17-15.98-12.32-25.12-15.07C143.12,92.27,144.98,97.12,145.8,102L145.8,102z"/>
		<path d="M61.45,152.76v7.48h9.04c2.89,6.6,9.48,11.22,17.13,11.22h74.77c7.65,0,14.24-4.62,17.13-11.22h9.04v-7.48H61.45z"/>
		<path d="M73.91,81.73c1.25,0,2.49-0.19,3.67-0.55l5.9,5.9c1.54,1.54,2.4,3.59,2.41,5.75c0.04,7.99,3.91,16.43,10.62,23.14
			c5.49,5.49,12.23,9.13,18.98,10.26c1.48,0.25,2.92,0.37,4.32,0.37c5.43,0,10.2-1.83,13.7-5.34c4.41-4.41,6.17-10.81,4.97-18.02
			c-1.12-6.75-4.77-13.49-10.26-18.98c-6.71-6.71-15.14-10.58-23.14-10.62c-2.16-0.01-4.21-0.87-5.75-2.41l-5.41-5.41
			c0.76-1.63,1.17-3.43,1.17-5.26c0-6.87-5.59-12.46-12.46-12.46c-5.73,0-10.57,3.89-12.02,9.16c-5.28,1.45-9.16,6.29-9.16,12.02
			C61.45,76.14,67.04,81.73,73.91,81.73L73.91,81.73z"/>
	</g>
</g>
<g id="VERDULERIAS" class="st2">
	<text transform="matrix(1 0 0 1 60.4614 200.1633)" class="st3 st4 st5">VERDULERIAS</text>
	<g class="st3">
		<path d="M117.78,135.03h14.43c1.99,0,3.61,1.62,3.61,3.61l0,0c0,1.99-1.62,3.61-3.61,3.61h-14.43c-1.99,0-3.61-1.62-3.61-3.61l0,0
			C114.18,136.64,115.79,135.03,117.78,135.03z"/>
		<path d="M63.42,113.13v50.98c0,4,3.24,7.23,7.23,7.23h108.7c4,0,7.23-3.24,7.23-7.23v-50.98
			C186.58,113.13,63.42,113.13,63.42,113.13z M139.43,149.46h-28.87c-1.99,0-3.61-1.62-3.61-3.61v-14.43c0-1.99,1.62-3.61,3.61-3.61
			h28.87c1.99,0,3.61,1.62,3.61,3.61v14.43C143.04,147.84,141.43,149.46,139.43,149.46z"/>
		<path d="M146.65,76.09L146.65,76.09c1.99,0,3.61,1.62,3.61,3.61v14.89c0.5,0.77,0.99,1.54,1.39,2.36l5.2-5.2
			c1.41-1.41,3.69-1.41,5.1,0l0,0c1.41,1.41,1.41,3.69,0,5.1l-8.2,8.2c0.01,0.3,0.11,0.57,0.11,0.87h24
			c0.81-2.3,1.26-4.72,1.26-7.22c0-6.2-2.7-12.1-7.33-16.19c0.07-0.63,0.11-1.24,0.11-1.85c0-5.66-2.71-10.97-7.22-14.36v-0.08
			c0-9.95-8.09-18.04-18.04-18.04s-18.04,8.09-18.04,18.04v0.08c-4.5,3.39-7.22,8.7-7.22,14.36c8.35,0,15.89,2.53,21.65,6.57V79.7
			C143.04,77.7,144.66,76.09,146.65,76.09z"/>
		<path d="M96.13,105.92h50.52c0-9.95-11.33-18.04-25.26-18.04C107.47,87.87,96.13,95.97,96.13,105.92L96.13,105.92z"/>
		<path d="M70.87,87.87c0,1.28,0.17,2.48,0.4,3.61h6.82c1.99,0,3.61,1.62,3.61,3.61l0,0c0,1.99-1.62,3.61-3.61,3.61h-5.23l1.47,7.22
			h14.58c0-9.68,7.12-18.01,17.43-22.25c-0.47-1.95-1.15-3.85-2.27-5.59c-1.98-3.05-4.82-5.26-8.04-6.65l7.94-7.94
			c1.06-1.06,1.06-2.79,0-3.86l-1.25-1.25c-1.06-1.06-2.79-1.06-3.85,0l-1.69,1.69c-1.72,1.72-4.65,0.5-4.65-1.93V50.9
			c0-1.51-1.22-2.73-2.73-2.73h-1.77c-1.51,0-2.73,1.22-2.73,2.73v7.24c0,2.43-2.94,3.64-4.65,1.93l-1.69-1.69
			c-1.06-1.06-2.79-1.06-3.85,0l-1.25,1.25c-1.06,1.06-1.06,2.79,0,3.86l7.86,7.86C75.35,74.14,70.87,80.49,70.87,87.87L70.87,87.87
			z"/>
	</g>
</g>
</svg>
