<?xml version="1.0" encoding="utf-8"?>
<!-- Generator: Adobe Illustrator 23.0.1, SVG Export Plug-In . SVG Version: 6.00 Build 0)  -->
<svg version="1.1" xmlns="http://www.w3.org/2000/svg" xmlns:xlink="http://www.w3.org/1999/xlink" x="0px" y="0px"
	 viewBox="0 0 250 250" style="enable-background:new 0 0 250 250;" xml:space="preserve">
<style type="text/css">
	.st0{fill:#FFBE00;}
	.st1{display:none;}
	.st2{display:inline;}
	.st3{font-family:'Montserrat-Black';}
	.st4{font-size:16.6298px;}
</style>
<g id="Guias">
</g>
<g id="Fondo">
	<g>
		<g>
			<path class="st0" d="M125,232.5L125,232.5c-59.37,0-107.5-48.13-107.5-107.5C17.5,65.63,65.63,17.5,125,17.5
				c59.37,0,107.5,48.13,107.5,107.5C232.5,184.37,184.37,232.5,125,232.5"/>
		</g>
		<g>
			<path class="st0" d="M125,245C58.83,245,5,191.17,5,125C5,58.83,58.83,5,125,5c66.17,0,120,53.83,120,120
				C245,191.17,191.17,245,125,245z M125,10C61.59,10,10,61.59,10,125s51.59,115,115,115c63.41,0,115-51.59,115-115
				S188.41,10,125,10z"/>
		</g>
	</g>
</g>
<g id="ALIMENTOS_Y_POTABLES" class="st1">
	<text transform="matrix(1 0 0 1 62.8643 192.5037)" class="st2"><tspan x="0" y="0" class="st3 st4">ALIMENTOS Y</tspan><tspan x="13.57" y="19.96" class="st3 st4">POTABLES</tspan></text>
	<g class="st2">
		<g>
			<path d="M175.05,69.69c0.07-0.07,0.15-0.13,0.22-0.19c0.18-0.13,0.39-0.22,0.6-0.28c0.07-0.02,0.14-0.05,0.22-0.06
				c0.07-0.03,0.15-0.05,0.22-0.07c0.58-0.05,1.16-0.16,1.71-0.33c3.97-1.16,6.67-5.27,5.7-8.62c-0.42-1.35-1.37-2.48-2.64-3.13
				c-1.98-1.01-4.29-1.2-6.41-0.53c-3.1,0.75-5.56,3.1-6.44,6.17c-0.02,0.11-0.06,0.22-0.1,0.32c-0.03,0.13-0.07,0.26-0.12,0.39
				c-0.08,0.16-0.19,0.31-0.31,0.45c-0.05,0.07-0.11,0.14-0.17,0.2c-0.15,0.14-0.32,0.26-0.51,0.34c-0.07,0.04-0.14,0.08-0.21,0.11
				c-0.17,0.06-0.36,0.1-0.54,0.11c-0.09,0.02-0.17,0.04-0.26,0.05h-10.99c-2.09,1.63-3.26,4.17-3.13,6.82
				c-0.1,2.53,0.97,4.97,2.91,6.61h11.22c0.08,0.01,0.17,0.03,0.25,0.05c0.14,0.01,0.28,0.04,0.41,0.08
				c0.14,0.04,0.28,0.1,0.41,0.17c0.12,0.06,0.23,0.14,0.34,0.22c0.11,0.09,0.21,0.19,0.3,0.3c0.09,0.11,0.17,0.23,0.24,0.35
				c0.07,0.13,0.13,0.27,0.17,0.41c0.03,0.07,0.06,0.15,0.09,0.22c0.78,2.82,3.03,5,5.88,5.7c2.12,0.67,4.43,0.48,6.41-0.54
				c1.27-0.65,2.23-1.79,2.65-3.15c0.94-3.24-1.62-6.84-5.71-8.04c-0.44-0.12-0.88-0.22-1.33-0.3c-1.15-0.19-1.96-1.23-1.86-2.39
				c0.05-0.43,0.23-0.84,0.52-1.16C174.87,69.88,174.96,69.78,175.05,69.69L175.05,69.69z M175.05,69.69"/>
			<path d="M147.42,71.43c-0.05-2.97,0.9-5.87,2.69-8.24c-10.97-6.09-20.62-11.06-28.77-14.82c-0.99-0.44-2.16-0.1-2.75,0.8
				c-1.91,2.82-5.1,4.51-8.5,4.51c-1.73-0.02-3.42-0.47-4.92-1.32c-2.26,4.24-6.67,6.91-11.48,6.95c-3.97,0-7.71-1.83-10.16-4.96
				c-1.79,1.38-3.99,2.14-6.25,2.15c-2.34,0-4.6-0.8-6.42-2.26c-0.51-0.38-1.15-0.53-1.77-0.4c-0.62,0.12-1.16,0.51-1.48,1.05
				c-5.87,9.74-6.03,21.88-0.43,31.78c5.6,9.89,16.1,16,27.46,15.99c12.43,0,42.92-16.06,55.48-22.98
				C148.33,77.31,147.38,74.41,147.42,71.43L147.42,71.43z M127.66,84.31c-10.52,6.33-22.12,12.07-33.5,12.07
				c-6.55,0.04-12.94-2.05-18.2-5.96c-0.65-0.47-0.99-1.25-0.91-2.04c0.08-0.79,0.59-1.48,1.32-1.81c0.73-0.33,1.58-0.24,2.23,0.23
				c14.48,10.52,31.78,2.7,46.77-6.32c1.06-0.61,2.41-0.26,3.04,0.79C129.01,82.3,128.69,83.66,127.66,84.31L127.66,84.31z
				 M127.66,84.31"/>
			<path d="M100.24,119.16c3.08,4.06,5,8.87,5.57,13.93c3.44-2.53,7.02-4.86,10.74-6.96c-3.3-4.98-8.22-8.67-13.92-10.46
				c-0.92-0.25-1.9,0.11-2.43,0.89C99.66,117.35,99.67,118.39,100.24,119.16L100.24,119.16z M100.24,119.16"/>
			<path d="M165.92,123.19c-2.37,4.51-7.98,18.09,2.24,30.34c6.9-3.59,13.07-8.44,18.19-14.29c0.79-0.9,0.74-2.26-0.13-3.09
				C180.39,130.5,173.48,126.1,165.92,123.19L165.92,123.19z M172.69,134.43c-0.02,0.14-0.07,0.28-0.13,0.4
				c-0.05,0.14-0.12,0.28-0.2,0.4l-0.27,0.34c-0.11,0.1-0.23,0.19-0.36,0.27c-0.11,0.09-0.24,0.16-0.38,0.2
				c-0.14,0.07-0.28,0.11-0.43,0.13c-0.14,0.03-0.28,0.04-0.42,0.04c-0.59,0-1.16-0.24-1.59-0.65c-0.09-0.11-0.18-0.22-0.27-0.34
				c-0.08-0.12-0.15-0.26-0.2-0.4c-0.07-0.13-0.11-0.26-0.13-0.4c-0.03-0.15-0.04-0.3-0.04-0.45c0-0.29,0.06-0.58,0.18-0.85
				c0.11-0.27,0.27-0.52,0.47-0.74c0.53-0.52,1.28-0.75,2.01-0.6c0.15,0.02,0.29,0.07,0.43,0.13c0.14,0.05,0.27,0.11,0.38,0.2
				c0.13,0.09,0.25,0.18,0.36,0.27c0.2,0.21,0.36,0.46,0.47,0.74c0.11,0.27,0.17,0.56,0.18,0.85
				C172.74,134.14,172.72,134.28,172.69,134.43L172.69,134.43z M172.69,134.43"/>
		</g>
		<path d="M100.24,154.77c-0.57,0.77-0.59,1.81-0.05,2.6c0.54,0.79,1.53,1.15,2.45,0.89c4.99-1.53,9.37-4.56,12.55-8.7
			c-3.35-2.28-6.56-4.74-9.62-7.38C104.85,146.75,103.02,151.07,100.24,154.77L100.24,154.77z M100.24,154.77"/>
		<g>
			<path d="M161.63,121.83c-3.61-0.98-7.33-1.48-11.07-1.49c-16.91,0-33.49,10.23-41.05,15.63c-0.56,0.4-0.91,1.04-0.94,1.73
				c-0.03,0.69,0.27,1.35,0.8,1.79c7.43,6.23,24.15,18.42,41.19,18.42c4.57-0.02,9.11-0.88,13.38-2.52
				C153.72,142.14,158.84,127.62,161.63,121.83L161.63,121.83z M148.12,129.51c-16.65,0-25.19,8.22-25.28,8.3
				c-0.88,0.85-2.28,0.83-3.14-0.03c-0.86-0.86-0.87-2.26-0.02-3.14c0.4-0.39,9.83-9.61,28.44-9.61c1.24,0,2.24,1,2.24,2.24
				C150.36,128.51,149.36,129.51,148.12,129.51L148.12,129.51z M148.12,129.51"/>
			<path d="M142.57,161.63c0.97,2.27,1.26,4.77,0.83,7.21c-0.12,0.73,0.13,1.48,0.67,1.99c0.54,0.51,1.29,0.72,2.02,0.56
				c0.45-0.09,0.8-0.18,1-0.22c2.62-0.65,3.94-2.3,8.73-9.12c-1.74,0.23-3.5,0.34-5.25,0.35
				C147.88,162.38,145.2,162.12,142.57,161.63L142.57,161.63z M142.57,161.63"/>
		</g>
		<path d="M140.15,105.51c0.72,3.69,1.12,7.44,1.19,11.2c3.04-0.56,6.13-0.84,9.22-0.85c2.88,0,5.75,0.27,8.59,0.79
			c-0.44-3.65-2.19-7.01-4.94-9.44c-3.36-2.59-7.42-4.12-11.65-4.39c-0.71-0.07-1.41,0.2-1.89,0.73
			C140.19,104.09,140,104.82,140.15,105.51L140.15,105.51z M140.15,105.51"/>
	</g>
</g>
<g id="CARNICERÍAS" class="st1">
	<text transform="matrix(1 0 0 1 62.4404 200.1633)" class="st2 st3 st4">CARNICERÍAS</text>
	<g class="st2">
		<g>
			<path d="M119.09,135.21c17.59,0,42.93-13.02,57.5-27.6c5.33-5.33,8.51-10.16,10.05-14.65l-44.78-44.78
				c-4.49,1.53-9.32,4.71-14.65,10.05c-19.52,19.52-36.27,58.38-22.63,72.02C108.03,133.7,113.11,135.21,119.09,135.21
				L119.09,135.21z M152.42,105.9L152.42,105.9c-1.41-1.41-1.41-3.7,0-5.11l0,0c1.41-1.41,3.7-1.41,5.11,0l0,0
				c1.41,1.41,1.41,3.7,0,5.11l0,0C156.12,107.31,153.83,107.31,152.42,105.9z M154.64,85.34L154.64,85.34
				c1.41,1.41,1.41,3.7,0,5.11h0c-1.41,1.41-3.7,1.41-5.11,0v0c-1.41-1.41-1.41-3.7,0-5.11v0
				C150.94,83.93,153.23,83.93,154.64,85.34z M142.92,97.06L142.92,97.06c1.41,1.41,1.41,3.7,0,5.11l0,0c-1.41,1.41-3.7,1.41-5.11,0
				l0,0c-1.41-1.41-1.41-3.7,0-5.11l0,0C139.22,95.65,141.51,95.65,142.92,97.06z M140.36,94.51"/>
			<path d="M108.96,140.99c-3.43-1.08-6.97-3.11-9.49-5.63c-2.53-2.53-4.55-6.06-5.63-9.5l-14.1,14.1
				c-1.68-1.06-3.63-1.62-5.67-1.62c-2.86,0-5.55,1.11-7.56,3.13c-4.17,4.17-4.17,10.96,0,15.13c2.36,2.36,5.56,3.39,8.65,3.07
				c-0.31,3.09,0.71,6.29,3.07,8.65c2.09,2.09,4.82,3.13,7.56,3.13c2.74,0,5.48-1.04,7.56-3.13c2.02-2.02,3.13-4.71,3.13-7.57
				c0-2.04-0.57-3.99-1.62-5.67L108.96,140.99z M108.96,140.99"/>
		</g>
	</g>
</g>
<g id="PESCADOS_Y_MARISCOS">
	<text transform="matrix(1 0 0 1 66.3481 192.5037)"><tspan x="0" y="0" class="st3 st4">PESCADOS Y</tspan><tspan x="10.17" y="19.96" class="st3 st4">MARISCOS</tspan></text>
	<g>
		<g>
			<path d="M95.5,58.01c3.86,0.87,6.7,2.22,8.85,3.78c9.45-2.62,20.39-3.68,30.73-2.66c-10.49-11.85-25.07-13.29-40-8.09
				C91.48,52.3,91.96,57.3,95.5,58.01L95.5,58.01z M95.5,58.01"/>
			<path d="M80.17,123.2c7.17-6.26,15.34-7.69,24.29-4.25c8.31,3.29,21.9,7.18,34.29,9.18c-0.89-1.41-0.9-1.42-0.96-1.52
				c-3.34-5.81-10.67-20.89-6.57-35.37c2.42-8.54,8.33-15.4,17.58-20.41c0.08-0.04,0.06-0.03,1.56-0.86
				c-11.28-4.27-24.09-4.88-35.94-2.98c-10.72,1.71-16.31,4.42-21.56,7.89c-25.53,16.85-32.83,39.71-28.12,58.89c0,0,0,0,0,0.01
				c5.52,22.46,28.58,36.53,29.56,37.12c0.55,0.33,1.18,0.52,1.89,0.52c1.01,0,7.36-0.21,11.77-5.41c3.89-4.59,5-11.42,3.29-20.3
				c-0.43-2.25-2.86-3.55-5-2.62c-0.06,0.03-6.05,2.61-13.35,2.33c-8.77-0.33-15.67-4.56-20.53-12.56
				C73.61,130.67,76.24,126.64,80.17,123.2L80.17,123.2z M80.17,123.2"/>
			<path d="M186.57,120.8c-3.18-20.68-12.23-37.65-28.18-47c-8.41,4.6-5.51,3.02-6.14,3.36c-7.48,4.05-12.22,9.45-14.09,16.05
				c-3.34,11.79,2.94,24.67,5.84,29.73l4.05,6.37c12.07,1.1,24.59,0.44,35.16-4.09c1.26-0.54,2.15-0.85,2.83-1.91
				C186.52,122.56,186.7,121.67,186.57,120.8L186.57,120.8z M159.69,101.87c-2.08,0-3.64-1.66-3.64-3.61c0-1.95,1.56-3.61,3.64-3.61
				c1.99,0,3.61,1.62,3.61,3.61C163.3,100.26,161.69,101.87,159.69,101.87L159.69,101.87z M159.69,101.87"/>
		</g>
	</g>
</g>
<g id="POLLERIAS" class="st1">
	<text transform="matrix(1 0 0 1 73.9814 200.1633)" class="st2 st3 st4">POLLERIAS</text>
	<g class="st2">
		<path d="M145.8,102c1.61,9.66-0.9,18.38-7.06,24.54c-4.93,4.92-11.49,7.53-18.99,7.53c-1.81,0-3.68-0.16-5.55-0.47
			c-8.28-1.38-16.46-5.76-23.04-12.35c-5.89-5.89-9.97-12.99-11.77-20.25c-6.74,6.28-10.46,13.9-10.46,21.84
			c0,8.26,3.93,16.06,11.08,22.43H178c2.04-3.23,3.08-6.97,3.08-11.22c0-10.02-5.82-21.69-15.57-31.23
			c-7.34-7.17-15.98-12.32-25.12-15.07C143.12,92.27,144.98,97.12,145.8,102L145.8,102z M145.8,102"/>
		<path d="M61.45,152.76v7.48h9.04c2.89,6.6,9.48,11.22,17.13,11.22h74.77c7.65,0,14.24-4.62,17.13-11.22h9.04v-7.48H61.45z
			 M61.45,152.76"/>
		<path d="M73.91,81.73c1.25,0,2.49-0.19,3.67-0.55l5.9,5.9c1.54,1.54,2.4,3.59,2.41,5.75c0.04,7.99,3.91,16.43,10.62,23.14
			c5.49,5.49,12.23,9.13,18.98,10.26c1.48,0.25,2.92,0.37,4.32,0.37c5.43,0,10.2-1.83,13.7-5.34c4.41-4.41,6.17-10.81,4.97-18.02
			c-1.12-6.75-4.77-13.49-10.26-18.98c-6.71-6.71-15.14-10.58-23.14-10.62c-2.16-0.01-4.21-0.87-5.75-2.41l-5.41-5.41
			c0.76-1.63,1.17-3.43,1.17-5.26c0-6.87-5.59-12.46-12.46-12.46c-5.73,0-10.57,3.89-12.02,9.16c-5.28,1.45-9.16,6.29-9.16,12.02
			C61.45,76.14,67.04,81.73,73.91,81.73L73.91,81.73z M73.91,81.73"/>
	</g>
</g>
<g id="VERDULERIAS" class="st1">
	<text transform="matrix(1 0 0 1 60.4614 200.1633)" class="st2 st3 st4">VERDULERIAS</text>
	<g class="st2">
		<path d="M117.78,135.03h14.43c1.99,0,3.61,1.62,3.61,3.61l0,0c0,1.99-1.62,3.61-3.61,3.61h-14.43c-1.99,0-3.61-1.62-3.61-3.61l0,0
			C114.18,136.64,115.79,135.03,117.78,135.03z"/>
		<path d="M63.42,113.13v50.98c0,4,3.24,7.23,7.23,7.23h108.7c4,0,7.23-3.24,7.23-7.23v-50.98H63.42z M139.43,149.46h-28.87
			c-1.99,0-3.61-1.62-3.61-3.61v-14.43c0-1.99,1.62-3.61,3.61-3.61h28.87c1.99,0,3.61,1.62,3.61,3.61v14.43
			C143.04,147.84,141.43,149.46,139.43,149.46z M143.04,149.46"/>
		<path d="M146.65,76.09L146.65,76.09c1.99,0,3.61,1.62,3.61,3.61v14.89c0.5,0.77,0.99,1.54,1.39,2.36l5.2-5.2
			c1.41-1.41,3.69-1.41,5.1,0v0c1.41,1.41,1.41,3.69,0,5.1l-8.2,8.2c0.01,0.3,0.11,0.57,0.11,0.87h24c0.81-2.3,1.26-4.72,1.26-7.22
			c0-6.2-2.7-12.1-7.33-16.19c0.07-0.63,0.11-1.24,0.11-1.85c0-5.66-2.71-10.97-7.22-14.36v-0.08c0-9.95-8.09-18.04-18.04-18.04
			s-18.04,8.09-18.04,18.04v0.08c-4.5,3.39-7.22,8.7-7.22,14.36c8.35,0,15.89,2.53,21.65,6.57V79.7
			C143.04,77.7,144.66,76.09,146.65,76.09z M143.04,76.09"/>
		<path d="M96.13,105.92h50.52c0-9.95-11.33-18.04-25.26-18.04C107.47,87.87,96.13,95.97,96.13,105.92L96.13,105.92z M96.13,105.92"
			/>
		<path d="M70.87,87.87c0,1.28,0.17,2.48,0.4,3.61h6.82c1.99,0,3.61,1.62,3.61,3.61v0c0,1.99-1.62,3.61-3.61,3.61h-5.23l1.47,7.22
			h14.58c0-9.68,7.12-18.01,17.43-22.25c-0.47-1.95-1.15-3.85-2.27-5.59c-1.98-3.05-4.82-5.26-8.04-6.65l7.94-7.94
			c1.06-1.06,1.06-2.79,0-3.86l-1.25-1.25c-1.06-1.06-2.79-1.06-3.85,0l-1.69,1.69c-1.72,1.72-4.65,0.5-4.65-1.93v-7.24
			c0-1.51-1.22-2.73-2.73-2.73h-1.77c-1.51,0-2.73,1.22-2.73,2.73v7.24c0,2.43-2.94,3.64-4.65,1.93l-1.69-1.69
			c-1.06-1.06-2.79-1.06-3.85,0l-1.25,1.25c-1.06,1.06-1.06,2.79,0,3.86l7.86,7.86C75.35,74.14,70.87,80.49,70.87,87.87L70.87,87.87
			z M70.87,87.87"/>
	</g>
</g>
</svg>
