<?xml version="1.0" encoding="utf-8"?>
<!-- Generator: Adobe Illustrator 23.0.1, SVG Export Plug-In . SVG Version: 6.00 Build 0)  -->
<svg version="1.1" xmlns="http://www.w3.org/2000/svg" xmlns:xlink="http://www.w3.org/1999/xlink" x="0px" y="0px"
	 viewBox="0 0 250 250" style="enable-background:new 0 0 250 250;" xml:space="preserve">
<style type="text/css">
	.st0{display:none;}
	.st1{display:inline;}
	.st2{fill:#FFC500;}
	.st3{fill:#211915;}
	.st4{fill:#FFFFFF;}
	.st5{fill:#ED1C24;}
	.st6{fill:#FFCF03;}
	.st7{fill:#FFA506;}
	.st8{fill:#FFEC03;}
	.st9{fill:#FFDC01;}
	.st10{fill:#FFAA2E;}
	.st11{fill:#FF9912;}
	.st12{fill:#FFB10F;}
	.st13{fill:#893003;}
	.st14{fill:#7A2B03;}
	.st15{fill:#FFA30F;}
	.st16{fill:#D67205;}
	.st17{fill:#BD6504;}
	.st18{fill:#E09C0D;}
	.st19{fill:#FFF8A4;}
	.st20{fill:#FFCC00;}
	.st21{fill:#F9C569;}
	.st22{fill:#FF970F;}
	.st23{opacity:0.63;}
	.st24{fill:#FF930F;}
	.st25{fill:#FF8B00;}
	.st26{fill:#FFB600;}
	.st27{fill:#FFC536;}
	.st28{opacity:0.51;}
	.st29{fill:#7A2B02;}
	.st30{fill:#EABE06;}
	.st31{fill:#FFD110;}
	.st32{fill:#FFD938;}
	.st33{fill:#E8BC03;}
	.st34{fill:#FFCA5C;}
	.st35{fill-rule:evenodd;clip-rule:evenodd;fill:#222220;}
	.st36{fill:#010306;}
	.st37{fill-rule:evenodd;clip-rule:evenodd;}
</style>
<g id="Guias" class="st0">
</g>
<g id="Mrkadito" class="st0">
	<g class="st1">
		<g>
			<g>
				<circle class="st2" cx="125" cy="115.65" r="106.33"/>
			</g>
			<g>
				<path class="st3" d="M190.38,36.97c-1.12,0-2.24-0.36-3.19-1.1C169.28,21.89,147.78,14.51,125,14.51
					c-22.03,0-42.97,6.96-60.55,20.12c-2.29,1.72-5.54,1.26-7.26-1.05c-1.72-2.29-1.25-5.54,1.05-7.26
					C77.63,11.8,100.72,4.13,125,4.13c25.11,0,48.82,8.15,68.57,23.56c2.26,1.76,2.66,5.02,0.9,7.28
					C193.45,36.28,191.92,36.97,190.38,36.97z"/>
			</g>
			<g>
				<path class="st3" d="M125,227.17c-61.49,0-111.52-50.03-111.52-111.52c0-16.71,3.61-32.77,10.71-47.75
					c1.23-2.59,4.33-3.69,6.91-2.47c2.59,1.23,3.69,4.32,2.47,6.91c-6.45,13.58-9.71,28.15-9.71,43.31
					c0,55.77,45.37,101.14,101.14,101.14s101.14-45.37,101.14-101.14c0-21.04-6.4-41.21-18.5-58.33c-1.66-2.34-1.1-5.58,1.24-7.23
					c2.33-1.66,5.57-1.1,7.23,1.24c13.35,18.87,20.41,41.11,20.41,64.32C236.52,177.14,186.49,227.17,125,227.17z"/>
			</g>
			<g>
				<g>
					<path class="st4" d="M186.38,45.32c10.97,9.93,19.58,21.97,25.21,35.67c1.24,3.01,6.2,1.69,4.94-1.36
						C210.56,65.08,201.67,52.26,190,41.7C187.56,39.49,183.93,43.1,186.38,45.32L186.38,45.32z"/>
				</g>
			</g>
		</g>
		<g>
			<path class="st4" d="M187.93,149.12c1.36-2.02,2.63-4.11,3.8-6.26c5.84-10.75,9.16-23.08,9.16-36.17c0-1.33-0.04-2.65-0.1-3.97
				c-0.02-0.44-0.07-0.87-0.1-1.31c-0.06-0.87-0.11-1.74-0.2-2.6c-0.05-0.52-0.13-1.03-0.2-1.55c-0.1-0.77-0.18-1.54-0.3-2.31
				c-0.08-0.55-0.19-1.09-0.29-1.63c-0.13-0.72-0.25-1.45-0.4-2.16c-0.12-0.56-0.25-1.1-0.38-1.65c-0.16-0.69-0.31-1.39-0.49-2.07
				c-0.15-0.56-0.31-1.1-0.47-1.65c-0.19-0.67-0.38-1.34-0.59-2c-0.17-0.55-0.37-1.1-0.56-1.64c-0.22-0.65-0.44-1.29-0.67-1.93
				c-0.2-0.55-0.42-1.08-0.64-1.62c-0.25-0.62-0.49-1.25-0.76-1.86c-0.23-0.54-0.48-1.07-0.72-1.6c-0.28-0.6-0.55-1.21-0.84-1.8
				c-0.26-0.53-0.53-1.04-0.8-1.56c-0.3-0.59-0.61-1.17-0.93-1.75c-0.28-0.51-0.58-1.02-0.88-1.52c-0.33-0.57-0.66-1.13-1.01-1.69
				c-0.31-0.5-0.63-0.99-0.95-1.48c-0.36-0.55-0.71-1.09-1.08-1.63c-0.33-0.48-0.68-0.96-1.02-1.43c-0.38-0.53-0.76-1.05-1.16-1.57
				c-0.36-0.47-0.72-0.93-1.09-1.38c-0.4-0.51-0.81-1.01-1.23-1.5c-0.38-0.45-0.76-0.89-1.15-1.33c-0.43-0.48-0.86-0.96-1.3-1.44
				c-0.4-0.43-0.81-0.86-1.22-1.28c-0.45-0.46-0.9-0.92-1.36-1.37c-0.21-0.2-0.4-0.41-0.61-0.61c0.07,0.07,0.14,0.15,0.21,0.23
				C163.96,38.89,145.43,30.8,125,30.8c-41.91,0-75.89,33.98-75.89,75.89c0,20.43,8.09,38.96,21.22,52.6
				c-0.08-0.07-0.15-0.14-0.23-0.21c0.2,0.21,0.41,0.4,0.61,0.61c0.33,0.33,0.65,0.67,0.98,0.99l-17.52,63.8l24.35-16.32l12.6,26.47
				l14.95-54.44c0.57,0.15,1.16,0.27,1.74,0.4c0.56,0.13,1.11,0.27,1.67,0.38c0.71,0.15,1.43,0.27,2.15,0.4
				c0.55,0.1,1.09,0.21,1.64,0.29c0.76,0.12,1.53,0.21,2.29,0.3c0.52,0.06,1.04,0.14,1.56,0.2c0.86,0.09,1.72,0.14,2.58,0.2
				c0.44,0.03,0.88,0.08,1.33,0.1c1.31,0.07,2.62,0.1,3.95,0.1c0.01,0,0.01,0,0.02,0c0,0,0,0,0,0c0,0,0,0,0,0
				c6.47,0,12.74-0.81,18.74-2.34l1.24,7.47c0,0,0,0,0,0l8.35,50.13l15.25-25.04l22.55,18.74l-10.46-62.76c0,0,0,0,0,0l-1.5-8.98
				c2.37-2.42,4.6-4.99,6.63-7.71C186.54,151.12,187.25,150.13,187.93,149.12z"/>
			<path class="st4" d="M153.34,245.87c-0.51,0-1.02-0.05-1.53-0.15c-3.29-0.64-5.84-3.25-6.39-6.56l-8.24-49.44
				c-4.02,0.59-8.1,0.88-12.18,0.88c-0.04,0-0.09,0-0.13,0c-1.39,0-2.82-0.04-4.24-0.11c-0.35-0.02-0.7-0.05-1.05-0.08l-0.75-0.06
				c-0.85-0.06-1.69-0.12-2.53-0.2c-0.4-0.04-0.8-0.09-1.21-0.15l-0.94-0.12c-0.7-0.09-1.41-0.17-2.1-0.28
				c-0.07-0.01-0.14-0.02-0.21-0.03l-12.96,47.19c-0.89,3.23-3.69,5.57-7.03,5.87c-3.34,0.29-6.51-1.52-7.95-4.55l-8.61-18.08
				l-16.63,11.15c-2.79,1.87-6.44,1.8-9.16-0.15c-2.72-1.96-3.94-5.41-3.05-8.64l16.32-59.43c-13.99-15.46-21.67-35.33-21.67-56.25
				c0-46.27,37.65-83.92,83.92-83.92c21.47,0,41.84,8.09,57.47,22.8c0.16,0.13,0.32,0.27,0.47,0.42c0.18,0.17,0.35,0.35,0.53,0.53
				l0.15,0.15c0.5,0.48,1,0.99,1.5,1.5c0.45,0.47,0.9,0.93,1.34,1.41c0.49,0.53,0.97,1.06,1.44,1.59c0.43,0.49,0.85,0.97,1.27,1.47
				c0.47,0.55,0.92,1.11,1.36,1.67c0.4,0.5,0.81,1.01,1.2,1.53c0.43,0.57,0.86,1.15,1.28,1.73c0.38,0.53,0.76,1.05,1.12,1.58
				c0.41,0.59,0.8,1.19,1.2,1.8c0.38,0.59,0.72,1.11,1.05,1.64c0.38,0.62,0.75,1.24,1.12,1.87l0.12,0.2
				c0.29,0.49,0.57,0.98,0.84,1.47c0.34,0.62,0.66,1.23,0.98,1.85l0.19,0.36c0.25,0.48,0.5,0.96,0.74,1.45
				c0.3,0.62,0.59,1.24,0.87,1.86l0.22,0.48c0.22,0.47,0.44,0.95,0.64,1.43c0.26,0.6,0.5,1.21,0.74,1.82l0.23,0.57
				c0.2,0.49,0.39,0.97,0.57,1.47c0.22,0.6,0.43,1.21,0.64,1.82l0.25,0.73c0.16,0.46,0.32,0.93,0.47,1.4
				c0.19,0.6,0.36,1.2,0.54,1.81l0.24,0.83c0.13,0.46,0.27,0.93,0.39,1.4c0.16,0.63,0.31,1.26,0.46,1.9l0.2,0.84
				c0.11,0.46,0.22,0.92,0.31,1.38c0.14,0.65,0.25,1.31,0.37,1.96l0.17,0.94c0.08,0.43,0.16,0.86,0.23,1.3
				c0.11,0.71,0.2,1.44,0.29,2.16l0.11,0.88c0.06,0.41,0.11,0.81,0.15,1.22c0.09,0.85,0.15,1.72,0.21,2.59l0.05,0.68
				c0.03,0.35,0.06,0.71,0.08,1.07c0.08,1.45,0.11,2.92,0.11,4.37c0,13.97-3.5,27.8-10.13,40.01c-1.28,2.35-2.69,4.68-4.2,6.92
				c0,0,0,0.01-0.01,0.01c-0.75,1.11-1.54,2.22-2.34,3.28c-1.39,1.86-2.9,3.7-4.49,5.49l11.3,67.83c0.55,3.31-1.01,6.61-3.92,8.28
				c-2.91,1.67-6.55,1.36-9.13-0.79l-15.4-12.8l-10.42,17.1C158.71,244.44,156.1,245.87,153.34,245.87z M143.74,172.22
				c1.54,0,3.07,0.45,4.39,1.31c1.88,1.23,3.16,3.19,3.53,5.4l6.05,36.32l4.03-6.61c1.21-1.99,3.23-3.36,5.54-3.74
				c2.3-0.38,4.66,0.25,6.45,1.75l5.95,4.95l-8.41-50.46c-0.42-2.53,0.39-5.11,2.19-6.94c2.17-2.21,4.17-4.53,5.93-6.9
				c0.65-0.87,1.29-1.76,1.9-2.67c1.22-1.81,2.36-3.69,3.4-5.59c5.35-9.86,8.18-21.04,8.18-32.34c0-1.17-0.03-2.36-0.09-3.55
				c-0.01-0.18-0.03-0.35-0.04-0.52l-0.07-0.95c-0.05-0.68-0.09-1.36-0.16-2.03c-0.02-0.24-0.06-0.48-0.09-0.71l-0.14-1.09
				c-0.07-0.55-0.13-1.1-0.22-1.64c-0.04-0.27-0.09-0.54-0.14-0.81l-0.2-1.11c-0.09-0.49-0.17-0.98-0.27-1.47
				c-0.06-0.3-0.14-0.61-0.21-0.92l-0.23-0.98c-0.11-0.48-0.22-0.95-0.34-1.42c-0.08-0.32-0.18-0.64-0.27-0.96l-0.27-0.93
				c-0.13-0.46-0.26-0.91-0.4-1.36c-0.11-0.34-0.22-0.66-0.33-0.99l-0.28-0.81c-0.16-0.47-0.32-0.94-0.49-1.4
				c-0.13-0.36-0.27-0.71-0.42-1.06l-0.26-0.64c-0.19-0.48-0.38-0.95-0.58-1.42c-0.15-0.35-0.31-0.7-0.47-1.05l-0.24-0.52
				c-0.22-0.49-0.45-0.98-0.69-1.47c-0.18-0.37-0.38-0.74-0.57-1.11l-0.15-0.29c-0.3-0.58-0.56-1.08-0.83-1.57
				c-0.21-0.38-0.44-0.76-0.66-1.15l-0.12-0.21c-0.29-0.5-0.59-1.01-0.89-1.5c-0.27-0.43-0.54-0.85-0.81-1.27
				c-0.35-0.54-0.67-1.03-1-1.51c-0.3-0.43-0.61-0.86-0.92-1.29c-0.34-0.47-0.68-0.93-1.03-1.4c-0.32-0.42-0.65-0.83-0.98-1.24
				c-0.36-0.46-0.73-0.9-1.1-1.35c-0.34-0.4-0.68-0.8-1.03-1.19c-0.38-0.43-0.77-0.86-1.16-1.29c-0.35-0.38-0.72-0.76-1.09-1.14
				c-0.4-0.41-0.8-0.82-1.22-1.22c-0.05-0.05-0.1-0.1-0.15-0.15c-0.07-0.07-0.15-0.13-0.22-0.2C159.32,45.57,142.62,38.83,125,38.83
				c-37.42,0-67.86,30.44-67.86,67.86c0,17.62,6.74,34.32,18.98,47.04c0.07,0.07,0.13,0.14,0.2,0.22c0.05,0.05,0.09,0.09,0.14,0.14
				l0.19,0.19c0.23,0.23,0.45,0.47,0.69,0.7c2.07,2.04,2.87,5.04,2.11,7.84l-11.81,43l6.43-4.31c1.94-1.3,4.35-1.69,6.6-1.07
				c2.25,0.62,4.12,2.18,5.12,4.29l3.33,6.99l9.24-33.63c1.16-4.22,5.49-6.74,9.74-5.65c0.3,0.08,0.6,0.14,0.9,0.21l1.24,0.29
				c0.3,0.07,0.59,0.14,0.89,0.2c0.49,0.1,0.97,0.18,1.46,0.27l1.1,0.2c0.28,0.05,0.56,0.1,0.84,0.15c0.52,0.08,1.05,0.15,1.58,0.21
				l1.14,0.15c0.23,0.03,0.47,0.06,0.71,0.09c0.67,0.07,1.32,0.11,1.98,0.16l0.35,0.02c0.22,0.02,0.45,0.03,0.68,0.05
				c0.17,0.01,0.34,0.03,0.51,0.04c1.23,0.06,2.45,0.05,3.65,0.09c5.63-0.01,11.23-0.71,16.66-2.09
				C142.41,172.3,143.08,172.22,143.74,172.22z M187.93,149.12h0.01H187.93z"/>
		</g>
		<g>
			<polygon class="st5" points="191.13,231.55 168.59,212.81 153.33,237.85 129.85,96.92 167.65,90.62 			"/>
			<polygon class="st5" points="54.17,224.49 78.52,208.17 91.12,234.64 128.96,96.87 92,86.72 			"/>
			<path class="st5" d="M69.44,168.89c9.76,8.73,21.58,15.2,34.64,18.58l24.88-90.61L92,86.72L69.44,168.89z"/>
			<path class="st5" d="M167.65,90.62l-37.8,6.3l15.13,90.8c13.48-3.32,25.68-9.93,35.7-18.93L167.65,90.62z"/>
			
				<ellipse transform="matrix(0.7071 -0.7071 0.7071 0.7071 -38.8305 119.6376)" class="st6" cx="125" cy="106.69" rx="75.89" ry="75.89"/>
			<path class="st7" d="M177.39,51.79c13,13.62,20.99,32.08,20.99,52.4c0,41.91-33.98,75.89-75.89,75.89
				c-20.32,0-38.77-7.99-52.39-20.99c13.82,14.48,33.31,23.49,54.9,23.49c41.91,0,75.89-33.98,75.89-75.89
				C200.89,85.1,191.87,65.61,177.39,51.79z"/>
			<g>
				<path class="st8" d="M171.73,106.69c0,4.85-4.27,8.96-5.69,13.33c-1.47,4.53-0.48,10.36-3.23,14.14
					c-2.77,3.81-8.64,4.66-12.45,7.43c-3.77,2.75-6.38,8.08-10.91,9.55c-4.37,1.42-9.6-1.32-14.44-1.32
					c-4.85,0-10.07,2.74-14.45,1.32c-4.53-1.47-7.14-6.81-10.91-9.55c-3.81-2.77-9.68-3.62-12.45-7.43
					c-2.75-3.77-1.76-9.6-3.23-14.14c-1.42-4.37-5.69-8.49-5.69-13.33c0-4.85,4.27-8.96,5.69-13.33c1.47-4.53,0.48-10.36,3.23-14.14
					c2.77-3.81,8.64-4.66,12.45-7.43c3.77-2.75,6.38-8.08,10.91-9.55c4.37-1.42,9.6,1.32,14.45,1.32c4.85,0,10.07-2.74,14.44-1.32
					c4.53,1.47,7.14,6.81,10.91,9.55c3.81,2.77,9.68,3.62,12.45,7.43c2.75,3.77,1.76,9.6,3.23,14.14
					C167.46,97.73,171.73,101.84,171.73,106.69z"/>
				<path class="st9" d="M131.66,147.39c-5.8-1.28-7.51-1.27-13.31,0c-2.06,0.45-4.87,1.14-6.74,0.53c-3.3-1.07-5.94-6.14-9.96-9.07
					c-4.04-2.94-9.69-3.92-11.71-6.69c-1.98-2.72-1.19-8.4-2.74-13.19c-0.67-2.06-1.78-3.93-2.85-5.74c-3.57-6.03-3.57-7.08,0-13.1
					c1.07-1.81,2.18-3.67,2.85-5.74c1.56-4.79,0.76-10.46,2.75-13.19c2.02-2.77,7.65-3.74,11.71-6.69c4.02-2.93,6.65-8,9.96-9.07
					c1.88-0.61,4.67,0.08,6.74,0.53c5.81,1.28,7.51,1.28,13.31,0c2.07-0.45,4.87-1.14,6.74-0.53c3.3,1.07,5.94,6.14,9.96,9.07
					c4.07,2.96,9.69,3.91,11.71,6.69c1.98,2.72,1.19,8.4,2.74,13.19c0.67,2.06,1.78,3.93,2.85,5.74c3.57,6.03,3.57,7.08,0,13.1
					c-2.86,4.83-3.39,6.34-3.97,12.25c-0.67,6.82-1.15,7.54-7.51,10.3c-1.97,0.86-4,1.74-5.81,3.06c-4.02,2.93-6.66,8-9.96,9.07
					C137.89,148.09,133.79,147.86,131.66,147.39z"/>
				<path class="st8" d="M161.62,106.69c0,20.23-16.4,36.62-36.62,36.62c-20.23,0-36.62-16.4-36.62-36.62
					c0-20.23,16.4-36.62,36.62-36.62C145.23,70.07,161.62,86.47,161.62,106.69z"/>
			</g>
			<g>
				<g>
					<path class="st10" d="M113.47,157.37c3.04,2.39,3.85,6.37,3.85,6.37s-4.12,0.1-7.16-2.3s-3.85-6.37-3.85-6.37
						S110.42,154.98,113.47,157.37z"/>
					<path class="st10" d="M109.79,163.59c3.67-1.28,7.53,0.15,7.53,0.15s-2.1,3.49-5.77,4.77c-3.67,1.28-7.53-0.15-7.53-0.15
						S106.11,164.87,109.79,163.59z"/>
				</g>
				<g>
					<path class="st10" d="M101.59,154.15c2.68,2.78,2.93,6.83,2.93,6.83s-4.1-0.46-6.77-3.25c-2.68-2.78-2.93-6.83-2.93-6.83
						S98.91,151.37,101.59,154.15z"/>
					<path class="st10" d="M97.08,159.81c3.82-0.77,7.44,1.17,7.44,1.17s-2.56,3.18-6.38,3.94c-3.82,0.77-7.44-1.17-7.44-1.17
						S93.26,160.58,97.08,159.81z"/>
					<path class="st10" d="M92.24,149.53c2.2,3.17,1.79,7.2,1.79,7.2s-3.97-1.1-6.17-4.26c-2.2-3.16-1.79-7.2-1.79-7.2
						S90.05,146.36,92.24,149.53z"/>
					<path class="st10" d="M86.87,154.42c3.89-0.16,7.16,2.31,7.16,2.31s-3.04,2.74-6.93,2.9c-3.89,0.16-7.16-2.31-7.16-2.31
						S82.98,154.58,86.87,154.42z"/>
					<path class="st10" d="M83.51,142.48c1.35,3.6-0.04,7.41-0.04,7.41s-3.58-2.01-4.93-5.61c-1.35-3.6,0.04-7.41,0.04-7.41
						S82.16,138.89,83.51,142.48z"/>
					<path class="st10" d="M77.1,145.95c3.82,0.77,6.37,3.95,6.37,3.95s-3.63,1.93-7.44,1.16c-3.82-0.77-6.37-3.95-6.37-3.95
						S73.28,145.17,77.1,145.95z"/>
					<path class="st10" d="M76.91,134.33c0.45,3.81-1.81,7.2-1.81,7.2s-3-2.78-3.45-6.59c-0.45-3.81,1.81-7.2,1.81-7.2
						S76.45,130.52,76.91,134.33z"/>
					<path class="st10" d="M69.85,136.21c3.52,1.63,5.25,5.32,5.25,5.32s-3.99,1.04-7.51-0.6c-3.52-1.63-5.25-5.32-5.25-5.32
						S66.32,134.57,69.85,136.21z"/>
				</g>
				<g>
					<path class="st10" d="M71.27,124.06c-0.32,3.82-3.23,6.7-3.23,6.7s-2.38-3.31-2.05-7.13c0.32-3.82,3.23-6.7,3.23-6.7
						S71.6,120.24,71.27,124.06z"/>
					<path class="st10" d="M63.98,124.52c3.12,2.29,4.07,6.24,4.07,6.24s-4.12,0.23-7.24-2.06c-3.12-2.29-4.07-6.24-4.07-6.24
						S60.85,122.23,63.98,124.52z"/>
					<path class="st10" d="M68.37,114.26c-0.93,3.72-4.27,6.11-4.27,6.11s-1.81-3.64-0.88-7.36c0.93-3.72,4.26-6.11,4.26-6.11
						S69.3,110.54,68.37,114.26z"/>
					<path class="st10" d="M61.08,113.58c2.72,2.75,3.02,6.79,3.02,6.79s-4.1-0.41-6.82-3.16c-2.72-2.75-3.02-6.79-3.02-6.79
						S58.37,110.83,61.08,113.58z"/>
					<path class="st10" d="M68.05,103.35c-1.82,3.39-5.64,4.91-5.64,4.91s-0.86-3.97,0.96-7.35c1.82-3.39,5.64-4.91,5.64-4.91
						S69.88,99.96,68.05,103.35z"/>
					<path class="st10" d="M61.15,100.95c1.96,3.31,1.25,7.31,1.25,7.31s-3.88-1.38-5.84-4.69c-1.96-3.31-1.25-7.31-1.25-7.31
						S59.2,97.63,61.15,100.95z"/>
					<path class="st10" d="M70,92.33c-2.58,2.87-6.66,3.47-6.66,3.47s0.11-4.06,2.69-6.93c2.58-2.87,6.66-3.47,6.66-3.47
						S72.58,89.46,70,92.33z"/>
					<path class="st10" d="M63.87,88.41c1.11,3.67-0.53,7.4-0.53,7.4s-3.44-2.24-4.55-5.91c-1.11-3.67,0.53-7.4,0.53-7.4
						S62.76,84.73,63.87,88.41z"/>
				</g>
				<path class="st10" d="M73.98,83.28c-3.18,2.22-7.29,1.88-7.29,1.88s1.05-3.92,4.22-6.14c3.18-2.22,7.29-1.88,7.29-1.88
					S77.16,81.06,73.98,83.28z"/>
				<path class="st10" d="M68.93,78.08c0.23,3.83-2.23,7.08-2.23,7.08s-2.83-2.95-3.06-6.77c-0.23-3.83,2.23-7.08,2.23-7.08
					S68.7,74.25,68.93,78.08z"/>
				<path class="st10" d="M78.97,75.09c-3.49,1.69-7.5,0.72-7.5,0.72s1.66-3.71,5.16-5.4c3.49-1.69,7.5-0.72,7.5-0.72
					S82.47,73.39,78.97,75.09z"/>
				<path class="st10" d="M74.81,69.16c-0.39,3.81-3.34,6.65-3.34,6.65s-2.32-3.35-1.93-7.17c0.39-3.81,3.34-6.65,3.34-6.65
					S75.2,65.35,74.81,69.16z"/>
				<g>
					<path class="st10" d="M134.59,156.85c-3.04,2.39-3.85,6.37-3.85,6.37s4.12,0.1,7.16-2.3c3.04-2.39,3.85-6.37,3.85-6.37
						S137.64,154.46,134.59,156.85z"/>
					<path class="st10" d="M138.27,163.08c-3.67-1.28-7.53,0.15-7.53,0.15s2.1,3.49,5.77,4.77c3.67,1.28,7.53-0.15,7.53-0.15
						S141.95,164.35,138.27,163.08z"/>
				</g>
				<g>
					<path class="st10" d="M144.97,154.15c-2.68,2.78-2.93,6.83-2.93,6.83s4.1-0.46,6.77-3.25c2.68-2.78,2.93-6.83,2.93-6.83
						S147.64,151.37,144.97,154.15z"/>
					<path class="st10" d="M149.48,159.81c-3.82-0.77-7.44,1.17-7.44,1.17s2.56,3.18,6.38,3.94c3.82,0.77,7.44-1.17,7.44-1.17
						S153.3,160.58,149.48,159.81z"/>
					<path class="st10" d="M154.3,149.14c-2.2,3.17-1.79,7.2-1.79,7.2s3.97-1.09,6.17-4.26c2.2-3.16,1.79-7.2,1.79-7.2
						S156.49,145.97,154.3,149.14z"/>
					<path class="st10" d="M159.67,154.03c-3.89-0.16-7.16,2.31-7.16,2.31s3.04,2.74,6.93,2.9c3.89,0.16,7.16-2.31,7.16-2.31
						S163.56,154.19,159.67,154.03z"/>
					<path class="st10" d="M162.73,142.28c-1.35,3.6,0.04,7.41,0.04,7.41s3.58-2.01,4.93-5.61c1.35-3.6-0.04-7.41-0.04-7.41
						S164.08,138.69,162.73,142.28z"/>
					<path class="st10" d="M169.14,145.74c-3.82,0.77-6.37,3.95-6.37,3.95s3.63,1.93,7.44,1.16c3.82-0.77,6.37-3.95,6.37-3.95
						S172.96,144.97,169.14,145.74z"/>
					<path class="st10" d="M169.69,133.58c-0.45,3.81,1.81,7.2,1.81,7.2s3-2.78,3.45-6.59c0.45-3.81-1.81-7.2-1.81-7.2
						S170.15,129.77,169.69,133.58z"/>
					<path class="st10" d="M176.76,135.46c-3.52,1.63-5.25,5.32-5.25,5.32s3.99,1.04,7.51-0.6c3.52-1.63,5.25-5.32,5.25-5.32
						S180.28,133.83,176.76,135.46z"/>
				</g>
				<g>
					<path class="st10" d="M174.69,123.86c0.32,3.82,3.23,6.7,3.23,6.7s2.38-3.31,2.05-7.13c-0.32-3.82-3.23-6.7-3.23-6.7
						S174.36,120.05,174.69,123.86z"/>
					<path class="st10" d="M181.99,124.33c-3.12,2.29-4.07,6.24-4.07,6.24s4.12,0.23,7.24-2.06c3.12-2.29,4.07-6.24,4.07-6.24
						S185.11,122.04,181.99,124.33z"/>
					<path class="st10" d="M177.6,114.06c0.93,3.72,4.27,6.11,4.27,6.11s1.81-3.64,0.88-7.36c-0.93-3.72-4.26-6.11-4.26-6.11
						S176.66,110.33,177.6,114.06z"/>
					<path class="st10" d="M184.88,113.37c-2.72,2.75-3.02,6.79-3.02,6.79s4.1-0.41,6.82-3.16c2.72-2.75,3.02-6.79,3.02-6.79
						S187.59,110.63,184.88,113.37z"/>
					<path class="st10" d="M177.86,103.51c1.82,3.39,5.64,4.91,5.64,4.91s0.86-3.97-0.96-7.35c-1.82-3.39-5.65-4.91-5.65-4.91
						S176.04,100.12,177.86,103.51z"/>
					<path class="st10" d="M184.76,101.11c-1.96,3.31-1.25,7.31-1.25,7.31s3.88-1.38,5.83-4.69c1.96-3.31,1.25-7.31,1.25-7.31
						S186.71,97.79,184.76,101.11z"/>
					<path class="st10" d="M175.82,92.48c2.58,2.87,6.66,3.47,6.66,3.47s-0.11-4.06-2.69-6.93c-2.58-2.87-6.66-3.47-6.66-3.47
						S173.24,89.61,175.82,92.48z"/>
					<path class="st10" d="M181.95,88.56c-1.11,3.67,0.53,7.4,0.53,7.4s3.44-2.24,4.55-5.91c1.11-3.67-0.53-7.4-0.53-7.4
						S183.06,84.88,181.95,88.56z"/>
				</g>
				<path class="st10" d="M171.95,83.58c3.18,2.22,7.29,1.88,7.29,1.88s-1.05-3.92-4.22-6.14c-3.18-2.22-7.29-1.88-7.29-1.88
					S168.77,81.37,171.95,83.58z"/>
				<path class="st10" d="M177.01,78.38c-0.23,3.83,2.23,7.08,2.23,7.08s2.83-2.95,3.06-6.77c0.23-3.83-2.23-7.08-2.23-7.08
					S177.24,74.56,177.01,78.38z"/>
				<path class="st10" d="M166.67,75.45c3.5,1.69,7.5,0.72,7.5,0.72s-1.66-3.71-5.16-5.4c-3.5-1.69-7.5-0.72-7.5-0.72
					S163.18,73.76,166.67,75.45z"/>
				<path class="st10" d="M170.83,69.53c0.39,3.81,3.34,6.65,3.34,6.65s2.32-3.35,1.93-7.17c-0.39-3.81-3.34-6.65-3.34-6.65
					S170.44,65.71,170.83,69.53z"/>
				<path class="st11" d="M163.86,63.75c-0.16,0.16-0.34,0.33-0.55,0.49c-0.06,0.05-0.12,0.08-0.19,0.12
					c12.22,10.4,19.91,25.45,19.91,42.17c0,31.31-26.98,56.79-60.13,56.79c-33.16,0-60.13-25.47-60.13-56.79
					c0-15.98,7.03-30.43,18.31-40.76c-0.32-0.09-0.64-0.22-0.97-0.38C68.82,75.87,61.8,90.44,61.8,106.53
					c0,31.82,27.41,57.7,61.1,57.7c33.69,0,61.1-25.88,61.1-57.7C184,89.58,176.22,74.32,163.86,63.75z"/>
				<path class="st10" d="M87.06,67.84c-3.81,0.81-7.45-1.09-7.45-1.09s2.53-3.2,6.34-4.01c3.81-0.81,7.45,1.09,7.45,1.09
					S90.87,67.03,87.06,67.84z"/>
				<path class="st10" d="M84.49,61.1c-1.32,3.61-4.88,5.65-4.88,5.65s-1.43-3.81-0.11-7.41c1.32-3.61,4.88-5.65,4.88-5.65
					S85.81,57.5,84.49,61.1z"/>
				<path class="st10" d="M158.99,67.84c3.81,0.81,7.45-1.09,7.45-1.09s-2.53-3.2-6.34-4.01c-3.81-0.81-7.45,1.09-7.45,1.09
					S155.19,67.03,158.99,67.84z"/>
				<path class="st10" d="M161.57,61.1c1.32,3.61,4.88,5.65,4.88,5.65s1.43-3.81,0.11-7.41c-1.32-3.61-4.88-5.65-4.88-5.65
					S160.25,57.5,161.57,61.1z"/>
			</g>
			<polygon class="st8" points="110.67,55.54 105.47,54.05 100.72,56.64 100.54,51.23 96.6,47.52 101.69,45.67 104,40.78 
				107.33,45.05 112.7,45.74 109.67,50.22 			"/>
			<polygon class="st8" points="145.24,55.99 149.72,59.04 150.43,53.68 154.71,50.36 149.83,48.03 148,42.94 144.27,46.86 
				138.86,47.02 141.44,51.78 139.92,56.97 			"/>
			<polygon class="st8" points="130.09,54.79 125.18,52.52 120.09,54.36 120.73,48.99 117.41,44.72 122.72,43.67 125.76,39.19 
				128.39,43.92 133.59,45.42 129.91,49.39 			"/>
		</g>
	</g>
</g>
<g id="Mrkado" class="st0">
	<g class="st1">
		<g>
			<g>
				<circle class="st2" cx="124.95" cy="130.78" r="93.55"/>
			</g>
			<g>
				<path class="st3" d="M182.47,61.56c-0.98,0-1.97-0.31-2.81-0.97c-15.75-12.3-34.67-18.8-54.71-18.8
					c-19.38,0-37.8,6.12-53.27,17.7c-2.02,1.51-4.88,1.1-6.39-0.92c-1.51-2.02-1.1-4.88,0.92-6.39
					c17.06-12.77,37.37-19.52,58.74-19.52c22.09,0,42.95,7.17,60.33,20.73c1.99,1.55,2.34,4.42,0.79,6.41
					C185.17,60.96,183.83,61.56,182.47,61.56z"/>
			</g>
			<g>
				<path class="st3" d="M124.95,228.9c-54.1,0-98.12-44.01-98.12-98.12c0-14.7,3.17-28.83,9.43-42.01
					c1.08-2.28,3.81-3.24,6.08-2.17c2.28,1.08,3.25,3.8,2.17,6.08c-5.67,11.95-8.55,24.77-8.55,38.1
					c0,49.07,39.92,88.99,88.99,88.99s88.99-39.92,88.99-88.99c0-18.52-5.63-36.26-16.28-51.32c-1.46-2.06-0.97-4.91,1.09-6.36
					c2.06-1.46,4.9-0.97,6.36,1.09c11.75,16.61,17.96,36.17,17.96,56.59C223.07,184.88,179.05,228.9,124.95,228.9z"/>
			</g>
			<g>
				<g>
					<path class="st4" d="M178.95,68.91c9.65,8.74,17.23,19.33,22.18,31.39c1.09,2.65,5.45,1.49,4.35-1.2
						c-5.25-12.8-13.07-24.08-23.34-33.38C179.99,63.77,176.8,66.95,178.95,68.91L178.95,68.91z"/>
				</g>
			</g>
		</g>
		<g>
			<path class="st4" d="M184.9,250H64.09c-5.25,0-9.5-4.25-9.5-9.5v-4.98c0-3.82,2.25-7.11,5.51-8.62
				c0.1-5.82,3.86-10.77,9.06-12.64l4.37-66.84c-0.79-1.39-1.25-2.99-1.25-4.71v-4.54c0-5.25,4.25-9.5,9.5-9.5h26.43
				c1.01-1.11,2.2-2.05,3.52-2.79v-14.37l-15.26,6.42c-3.04,1.28-6.52,0.89-9.2-1.02c-2.68-1.91-4.18-5.08-3.96-8.37l2.07-30.88
				L65.15,54.24c-2.16-2.49-2.86-5.93-1.87-9.07c0.99-3.14,3.54-5.55,6.73-6.35l30.01-7.57l16.02-26.48
				c1.71-2.82,4.75-4.55,8.05-4.58c3.23-0.04,6.37,1.65,8.12,4.44l16.47,26.2l30.14,7.06c3.21,0.75,5.8,3.11,6.84,6.24
				c1.04,3.12,0.4,6.57-1.71,9.1L164.11,77l2.6,30.84c0.28,3.28-1.17,6.48-3.82,8.43c-2.65,1.96-6.13,2.4-9.18,1.18l-16.45-6.59
				v15.03c1.32,0.74,2.5,1.68,3.51,2.79h26.43c5.25,0,9.5,4.25,9.5,9.5v4.54c0,1.36-0.29,2.66-0.81,3.83l3.98,67.73
				c5.18,1.89,8.9,6.82,9.01,12.62c3.25,1.51,5.51,4.8,5.51,8.62v4.98C194.39,245.75,190.14,250,184.9,250z M83.16,231h82.67
				c-2.52-1.58-4.25-4.32-4.43-7.49l-4.46-75.83h-21.96c-3.47,0-6.5-1.86-8.16-4.63c-0.81-0.08-1.58-0.26-2.32-0.53
				c-0.74,0.27-1.52,0.45-2.32,0.53c-1.66,2.78-4.69,4.63-8.16,4.63H92.54l-0.02,0.41l-4.93,75.49
				C87.38,226.72,85.66,229.43,83.16,231z M89.59,53.48L102.3,68.2c1.63,1.89,2.46,4.35,2.29,6.84l-1.3,19.41l14.25-5.99
				c2.06-0.86,4.33-0.96,6.42-0.34c2.31-1.02,4.96-1.07,7.35-0.12l15.19,6.09l-1.63-19.39c-0.21-2.49,0.57-4.96,2.17-6.88
				l12.47-14.93l-18.94-4.44c-2.43-0.57-4.55-2.08-5.88-4.19l-10.35-16.47l-10.07,16.64c-1.3,2.14-3.38,3.68-5.8,4.29L89.59,53.48z"
				/>
		</g>
		<g>
			<g>
				<rect x="121.22" y="93.7" class="st12" width="6.55" height="39.9"/>
			</g>
			<g>
				<path class="st9" d="M134.97,138.18h-20.96l0,0c0-2.53,2.05-4.59,4.59-4.59h11.79C132.92,133.59,134.97,135.65,134.97,138.18
					L134.97,138.18z"/>
			</g>
			<g>
				<polygon class="st13" points="170.88,222.96 78.11,222.96 83.35,142.72 166.16,142.72 				"/>
			</g>
			<g>
				<path class="st14" d="M166.16,142.72H83.35l-0.31,4.75c19.69,7.6,51.47,23.54,63.51,50.44c4.75,10.62,8.24,18.78,10.8,25.05
					h13.53L166.16,142.72z"/>
			</g>
			<g>
				<rect x="81.78" y="138.18" class="st12" width="85.43" height="4.54"/>
			</g>
			<g>
				<path class="st12" d="M179.39,235.62H69.59v-8.47c0-2.32,1.88-4.19,4.19-4.19H175.2c2.32,0,4.19,1.88,4.19,4.19V235.62z"/>
			</g>
			<g>
				<path class="st15" d="M175.2,222.96h-17.95c2.32,0,4.19,1.88,4.19,4.19v8.47h17.95v-8.47
					C179.39,224.83,177.52,222.96,175.2,222.96z"/>
			</g>
			<g>
				<rect x="64.09" y="235.52" class="st16" width="120.81" height="4.98"/>
			</g>
			<g>
				<rect x="64.09" y="238.96" class="st17" width="120.81" height="1.54"/>
			</g>
			<g>
				<polygon class="st18" points="121.22,102.91 124.95,101.34 127.77,102.47 127.77,93.7 121.22,93.7 				"/>
			</g>
			<g>
				<polygon class="st9" points="157.25,108.64 124.9,95.67 92.78,109.18 95.11,74.41 72.33,48.04 106.13,39.51 124.17,9.7 
					142.72,39.2 176.65,47.15 154.32,73.91 				"/>
			</g>
			<g>
				<path class="st9" d="M97.87,107.04c18.34-20.25,30.45-52.83,31.07-89.76l-4.77-7.59l-18.05,29.82l-33.79,8.52l22.78,26.38
					l-2.34,34.77L97.87,107.04z"/>
			</g>
			<g>
				<g>
					<path class="st19" d="M124.07,86.74l-14.85-20.7c-0.17-0.23-0.11-0.55,0.12-0.72c0.23-0.17,0.55-0.11,0.72,0.12l14.85,20.7
						c0.17,0.23,0.11,0.55-0.12,0.72C124.56,87.03,124.24,86.98,124.07,86.74z"/>
				</g>
			</g>
			<g>
				<g>
					<path class="st19" d="M139.63,94.01l-33.02-44.07c-0.17-0.23-0.12-0.55,0.1-0.72c0.23-0.17,0.55-0.12,0.72,0.1l33.02,44.07
						c0.17,0.23,0.12,0.55-0.1,0.72C140.13,94.28,139.8,94.24,139.63,94.01z"/>
				</g>
			</g>
			<g>
				<g>
					<path class="st19" d="M150.24,98.6l-33.59-47.63c-0.16-0.23-0.11-0.55,0.12-0.72c0.23-0.17,0.55-0.11,0.72,0.12L151.08,98
						c0.16,0.23,0.11,0.55-0.12,0.72C150.72,98.89,150.4,98.83,150.24,98.6z"/>
				</g>
			</g>
			<g>
				<g>
					<path class="st19" d="M140.93,69.97l-22.8-32.49c-0.16-0.23-0.11-0.55,0.13-0.72c0.23-0.16,0.55-0.11,0.72,0.13l22.8,32.49
						c0.16,0.23,0.11,0.55-0.13,0.72C141.42,70.26,141.1,70.2,140.93,69.97z"/>
				</g>
			</g>
			<g>
				<g>
					<path class="st19" d="M139.62,53.06l-8.25-12.32c-0.16-0.24-0.1-0.56,0.14-0.72c0.24-0.16,0.56-0.1,0.72,0.14l8.25,12.32
						c0.16,0.24,0.1,0.56-0.14,0.72C140.09,53.36,139.77,53.29,139.62,53.06z"/>
				</g>
			</g>
			<g>
				<path class="st20" d="M147.25,186.3h-39.57c0,1.45-1.17,2.62-2.62,2.62v19.12c1.45,0,2.62,1.17,2.62,2.62h39.57
					c0-1.45,1.17-2.62,2.62-2.62v-19.12C148.43,188.92,147.25,187.75,147.25,186.3z"/>
			</g>
			<g>
				<g>
					<path class="st21" d="M107.68,186.3c0,0.07,0,0.14-0.01,0.2l19.16,24.15h2.68l-19.32-24.36H107.68z"/>
				</g>
				<g>
					<path class="st21" d="M105.06,188.92v1.31l16.2,20.43h1.34l-17.25-21.75C105.25,188.92,105.16,188.92,105.06,188.92z"/>
				</g>
				<g>
					<polygon class="st21" points="115.15,186.3 134.47,210.66 135.81,210.66 116.49,186.3 					"/>
				</g>
				<g>
					<polygon class="st21" points="120.28,186.3 139.6,210.66 141.61,210.66 122.29,186.3 					"/>
				</g>
			</g>
			<g>
				<g>
					<path class="st21" d="M153.67,226.38h-12.06c-0.69,0-0.69-1.05,0-1.05h12.06c0.29,0,0.52,0.23,0.52,0.52
						C154.19,226.15,153.96,226.38,153.67,226.38z"/>
				</g>
			</g>
			<g>
				<g>
					<path class="st21" d="M136.08,226.38h-10.6c-0.69,0-0.69-1.05,0-1.05h10.6c0.29,0,0.52,0.23,0.52,0.52
						C136.61,226.15,136.37,226.38,136.08,226.38z"/>
				</g>
			</g>
			<g>
				<g>
					<path class="st21" d="M120.28,226.38H74.53c-0.69,0-0.69-1.05,0-1.05h45.75c0.29,0,0.52,0.23,0.52,0.52
						C120.81,226.15,120.57,226.38,120.28,226.38z"/>
				</g>
			</g>
		</g>
	</g>
</g>
<g id="Super_Mrkado">
	<g>
		<g>
			<g>
				<circle class="st2" cx="121.85" cy="130.78" r="93.55"/>
			</g>
			<g>
				<path class="st3" d="M179.37,61.56c-0.98,0-1.97-0.31-2.81-0.97c-15.76-12.3-34.67-18.8-54.71-18.8
					c-19.38,0-37.8,6.12-53.27,17.7c-2.02,1.51-4.88,1.1-6.39-0.92c-1.51-2.02-1.1-4.88,0.92-6.39
					c17.06-12.77,37.37-19.52,58.74-19.52c22.09,0,42.95,7.17,60.33,20.73c1.99,1.55,2.34,4.42,0.79,6.41
					C182.07,60.96,180.72,61.56,179.37,61.56z"/>
			</g>
			<g>
				<path class="st3" d="M121.85,228.9c-54.1,0-98.12-44.01-98.12-98.12c0-14.7,3.17-28.84,9.43-42.02
					c1.08-2.28,3.81-3.25,6.08-2.16c2.28,1.08,3.25,3.8,2.16,6.08c-5.67,11.94-8.54,24.76-8.54,38.1
					c0,49.07,39.92,88.99,88.99,88.99s88.99-39.92,88.99-88.99c0-18.52-5.63-36.26-16.28-51.32c-1.46-2.06-0.97-4.91,1.09-6.36
					c2.06-1.46,4.91-0.97,6.36,1.09c11.75,16.61,17.96,36.17,17.96,56.59C219.97,184.88,175.95,228.9,121.85,228.9z"/>
			</g>
			<g>
				<g>
					<path class="st4" d="M175.85,68.91c9.65,8.74,17.23,19.33,22.18,31.39c1.09,2.65,5.45,1.49,4.35-1.2
						c-5.25-12.8-13.07-24.08-23.34-33.38C176.89,63.77,173.69,66.95,175.85,68.91L175.85,68.91z"/>
				</g>
			</g>
		</g>
		<g>
			<path class="st4" d="M185.48,250H59.81c-3.68,0-7.03-2.12-8.59-5.45c-1.57-3.33-1.07-7.26,1.27-10.1l5.14-6.21
				c1.35-1.63,3.19-2.75,5.21-3.21v-79.14c0-5.25,4.25-9.5,9.5-9.5h3.89c2.61-3.71,6.92-6.14,11.79-6.14h13.6l-30.4-34.63
				l-18.63,7.47c-3.06,1.22-6.53,0.78-9.18-1.18c-2.65-1.96-4.09-5.15-3.82-8.43l2.17-25.8L25.16,47.8
				c-2.11-2.53-2.76-5.97-1.71-9.1c1.04-3.13,3.63-5.49,6.84-6.24l25.21-5.91L69.27,4.64c1.75-2.79,4.73-4.48,8.12-4.44
				c3.29,0.03,6.34,1.76,8.05,4.58l13.4,22.15l25.11,6.33c0.36,0.09,0.71,0.2,1.05,0.33c0.34-0.13,0.69-0.24,1.05-0.33l25.11-6.33
				l13.4-22.15c1.71-2.82,4.75-4.55,8.05-4.58c0.03,0,0.05,0,0.08,0c3.26,0,6.3,1.68,8.04,4.44l13.78,21.92l25.21,5.91
				c3.21,0.75,5.8,3.11,6.84,6.24c1.04,3.12,0.4,6.57-1.71,9.1l-16.59,19.88l2.17,25.8c0.28,3.29-1.17,6.48-3.82,8.43
				c-2.65,1.96-6.13,2.4-9.18,1.18l-18.63-7.47l-30.4,34.63h8.89c4.87,0,9.18,2.43,11.78,6.14h3.89c5.25,0,9.5,4.25,9.5,9.5v79.14
				c2.02,0.46,3.86,1.58,5.21,3.21l5.14,6.21c2.34,2.84,2.84,6.77,1.27,10.1C192.51,247.88,189.16,250,185.48,250z M81.83,231h81.63
				v-75.62h-1.28c-4.06,0-7.53-2.55-8.89-6.14h-19.77c-5.04,0-9.2-3.93-9.48-8.96c-0.01-0.16-0.04-0.26-0.05-0.3
				c-0.06-0.05-0.11-0.09-0.17-0.14c-0.22-0.19-0.35-0.19-0.4-0.19c-0.12,0.05-0.25,0.1-0.37,0.14c-0.02,0.02-0.04,0.03-0.05,0.05
				c-0.16,0.15-0.19,0.32-0.19,0.43c-0.28,5.03-4.45,8.97-9.48,8.97H91.99c-1.36,3.59-4.83,6.14-8.89,6.14h-1.27V231z
				 M157.29,149.25h0.03H157.29z M112.62,67.43L125,114.26l12.38-46.83L125,53.1L112.62,67.43z M145.63,47.92l9.41,10.89
				c2.05,2.37,2.8,5.6,1.99,8.63l-9.15,34.6l21.07-24.01c2.66-3.02,6.93-4.05,10.67-2.55l10.58,4.24L189,65.38
				c-0.21-2.49,0.57-4.96,2.17-6.88l9.22-11.05l-14.01-3.28c-2.43-0.57-4.55-2.08-5.88-4.19l-7.66-12.19l-7.45,12.31
				c-1.3,2.14-3.38,3.68-5.8,4.29L145.63,47.92z M73.91,74.81c2.68,0,5.3,1.13,7.14,3.23l21.07,24l-9.15-34.6
				c-0.8-3.03-0.06-6.26,1.99-8.64l9.41-10.89l-13.96-3.52c-2.42-0.61-4.51-2.15-5.8-4.29l-7.45-12.31L69.5,39.97
				c-1.33,2.12-3.44,3.62-5.88,4.19l-14.02,3.28l9.22,11.05c1.6,1.92,2.38,4.39,2.17,6.88L59.8,79.73l10.58-4.24
				C71.52,75.03,72.72,74.81,73.91,74.81z"/>
		</g>
		<g>
			<g>
				<g>
					<polygon class="st20" points="200.96,94.27 176.09,84.3 128.37,138.66 147.85,65.02 128.37,42.47 157.26,35.18 172.69,9.7 
						188.54,34.92 217.55,41.71 198.46,64.59 					"/>
				</g>
				<g>
					<polygon class="st22" points="200.96,94.27 198.46,64.59 217.55,41.71 188.54,34.92 172.69,9.7 188.35,39.68 215.02,42.22 
						192.51,60.99 197.36,88.54 173.47,76.33 128.37,138.66 176.09,84.3 					"/>
				</g>
				<g class="st23">
					<polygon class="st12" points="171.46,24.6 161.23,40.98 136.37,44.62 164.44,46.68 					"/>
				</g>
				<g>
					<polygon class="st20" points="49.04,94.27 73.91,84.3 121.63,138.66 102.16,65.02 121.63,42.47 92.74,35.18 77.32,9.7 
						61.46,34.92 32.45,41.71 51.54,64.59 					"/>
				</g>
				<g>
					<polygon class="st22" points="49.04,94.27 51.54,64.59 32.45,41.71 61.46,34.92 77.32,9.7 61.65,39.68 34.98,42.22 
						57.49,60.99 52.64,88.54 76.54,76.33 121.63,138.66 73.91,84.3 					"/>
				</g>
				<g class="st23">
					<polygon class="st12" points="78.54,24.6 88.77,40.98 113.63,44.62 85.56,46.68 					"/>
				</g>
				<g>
					<path class="st9" d="M133.59,141.97h-20.32v-1.65c0-5.61,4.55-10.16,10.16-10.16l0,0c5.61,0,10.16,4.55,10.16,10.16V141.97z"/>
				</g>
				<g>
					<path class="st12" d="M162.19,145.89H83.11v-1.23c0-2.71,2.2-4.9,4.9-4.9h69.27c2.71,0,4.9,2.2,4.9,4.9V145.89z"/>
				</g>
				<g>
					<rect x="72.33" y="145.89" class="st13" width="100.63" height="88.67"/>
				</g>
				<g>
					<path class="st14" d="M153.38,178.42c5.03,16.11,4.17,39.51,2.6,56.14h16.98v-88.67H72.33
						C72.33,145.89,144.78,150.9,153.38,178.42z"/>
				</g>
				<g>
					<path class="st12" d="M180.35,234.29h-57.7h-57.7c-2.01,2.43-3.13,3.79-5.14,6.21h62.84h62.84
						C183.48,238.08,182.35,236.72,180.35,234.29z"/>
				</g>
				<g>
					<path class="st24" d="M180.35,234.29H156l4.66,6.21h24.82C183.48,238.08,182.35,236.72,180.35,234.29z"/>
				</g>
			</g>
			<g>
				<path class="st20" d="M147.29,180h-47.22c0,1.73-1.4,3.13-3.13,3.13v22.81c1.73,0,3.13,1.4,3.13,3.13h47.22
					c0-1.73,1.4-3.13,3.13-3.13v-22.81C148.69,183.13,147.29,181.73,147.29,180z"/>
			</g>
			<g>
				<g>
					<path class="st12" d="M100.06,180c0,0.08,0,0.16-0.01,0.24l22.86,28.82h3.19L103.05,180H100.06z"/>
				</g>
				<g>
					<path class="st12" d="M96.94,183.13v1.56l19.33,24.38h1.6l-20.59-25.96C97.17,183.12,97.05,183.13,96.94,183.13z"/>
				</g>
				<g>
					<polygon class="st12" points="108.98,180 132.03,209.06 133.63,209.06 110.58,180 					"/>
				</g>
				<g>
					<polygon class="st12" points="115.1,180 138.16,209.06 140.55,209.06 117.5,180 					"/>
				</g>
			</g>
		</g>
	</g>
</g>
<g id="Hiper_Mrkado" class="st0">
	<g class="st1">
		<g>
			<g>
				<circle class="st2" cx="125.01" cy="134.76" r="99.35"/>
			</g>
			<g>
				<path class="st3" d="M186.1,61.24c-1.04,0-2.09-0.34-2.98-1.03c-16.73-13.06-36.82-19.96-58.1-19.96
					c-20.58,0-40.14,6.5-56.58,18.8c-2.14,1.61-5.18,1.17-6.78-0.98c-1.6-2.14-1.17-5.18,0.98-6.78
					c18.12-13.56,39.69-20.73,62.38-20.73c23.46,0,45.62,7.61,64.07,22.02c2.11,1.65,2.49,4.69,0.84,6.8
					C188.97,60.6,187.54,61.24,186.1,61.24z"/>
			</g>
			<g>
				<path class="st3" d="M125.01,238.96c-57.45,0-104.2-46.74-104.2-104.2c0-15.61,3.37-30.62,10.01-44.62
					c1.15-2.42,4.05-3.45,6.46-2.3c2.42,1.15,3.45,4.04,2.3,6.46c-6.02,12.69-9.08,26.31-9.08,40.47c0,52.11,42.4,94.5,94.5,94.5
					s94.5-42.4,94.5-94.5c0-19.66-5.98-38.51-17.29-54.5c-1.55-2.18-1.03-5.21,1.16-6.75c2.17-1.55,5.21-1.03,6.75,1.16
					c12.47,17.63,19.07,38.41,19.07,60.1C229.21,192.22,182.47,238.96,125.01,238.96z"/>
			</g>
			<g>
				<g>
					<path class="st4" d="M182.36,69.05c10.25,9.28,18.3,20.53,23.55,33.33c1.15,2.81,5.79,1.58,4.62-1.27
						c-5.58-13.6-13.88-25.57-24.79-35.45C183.47,63.59,180.07,66.97,182.36,69.05L182.36,69.05z"/>
				</g>
			</g>
		</g>
		<g>
			<path class="st4" d="M177.82,250H73.81c-5.57,0-10.09-4.52-10.09-10.09v-0.83c0-6.52,3.8-12.17,9.31-14.84v-34.41
				c0-3.67,1.95-6.87,4.88-8.64v-2.14c0-4.39,2.81-8.13,6.72-9.51c2.77-5.96,8.45-10.31,15.22-11.19c-1.97-3.21-3.74-6.39-5.29-9.37
				c-2.43,1.07-5.21,1.14-7.73,0.16c-3.26-1.27-5.62-4.15-6.25-7.59l-2.14-11.77l-9.8-6.87c-2.87-2.01-4.48-5.36-4.28-8.85
				c0.21-3.49,2.21-6.63,5.29-8.29l10.53-5.67l3.5-11.44c0.2-0.66,0.47-1.29,0.8-1.88l5.5-24.52L76.56,40.77
				c-1.85-2.97-2.04-6.68-0.49-9.82c1.55-3.14,4.62-5.25,8.1-5.57l25.24-2.36L125.69,3.6c2.25-2.68,5.7-4,9.19-3.5
				c3.46,0.51,6.42,2.77,7.8,5.98l10.05,23.27l23.5,9.49c3.24,1.31,5.58,4.21,6.17,7.66c0.59,3.45-0.65,6.95-3.28,9.27l-19.02,16.74
				l-1.77,25.28c-0.01,0.07-0.01,0.14-0.02,0.2c2.57,1.53,4.35,4.14,4.81,7.14l1.81,11.82l9.6,7.14c2.81,2.09,4.33,5.48,4.03,8.97
				c-0.3,3.49-2.39,6.57-5.51,8.14l-10.69,5.38l-3.82,11.34c-0.25,0.75-0.59,1.46-1,2.12c4.25,2,7.66,5.48,9.58,9.78
				c3.56,1.56,6.05,5.11,6.05,9.25v1.82c3.23,1.68,5.43,5.06,5.43,8.95v34.41c5.51,2.67,9.31,8.32,9.31,14.84v0.83
				C187.91,245.48,183.39,250,177.82,250z M171.42,242.77h0.03H171.42z M93.21,229.82h65.21v-31.03c-3.23-1.68-5.43-5.06-5.43-8.95
				v-2.47c-2.64-1.82-4.37-4.86-4.37-8.31v-0.69h-12.99c-3.36,0-6.5-1.67-8.37-4.46c-0.06-0.09-0.26-0.35-0.79-0.78
				c-0.18-0.14-0.35-0.29-0.52-0.45c-0.13-0.05-0.26-0.1-0.39-0.15c-0.09-0.04-0.41-0.15-1.11-0.21c-0.15-0.01-0.3-0.03-0.44-0.05
				c-0.14,0.02-0.28,0.05-0.42,0.06c-0.19,0.03-0.38,0.08-0.56,0.14c-0.21,0.07-0.43,0.13-0.64,0.18c-0.1,0.07-0.2,0.14-0.31,0.21
				c-0.43,0.29-0.79,0.64-1.07,1.06c-1.87,2.79-5.01,4.46-8.37,4.46h-9.62v0.69c0,3.68-1.97,6.9-4.92,8.67v2.11
				c0,3.67-1.95,6.87-4.88,8.64V229.82z M137.86,133.44c1.89,0.47,3.63,1.49,4.98,2.95c0.44,0.47,0.82,0.98,1.16,1.52l0.57-1.69
				c0.82-2.44,2.55-4.47,4.81-5.68c-1.96-1.53-3.29-3.73-3.72-6.18c-2.07,1.39-4.56,1.97-7.03,1.63c0.71,2.47,0.45,5.12-0.73,7.41
				L137.86,133.44z M98.5,123.65c0.87,0,1.75,0.11,2.61,0.34c0,0,0,0,0.01,0c0.04-0.04,0.08-0.09,0.11-0.13
				c2.23-2.38,5.47-3.54,8.7-3.09l5.04,0.68c0.21-1.52,0.44-3.09,0.7-4.75c0.12-0.79,0.34-1.55,0.63-2.27
				c-0.06-0.81-0.01-1.62,0.13-2.43c-1.1,0.43-2.29,0.68-3.54,0.7l-7.74,0.13c-2.59,0.06-5.06-0.9-6.96-2.63
				c-0.79,2.36-2.42,4.35-4.58,5.58c2.07,1.52,3.48,3.78,3.94,6.32l0.29,1.57C98.06,123.66,98.28,123.65,98.5,123.65z M138.94,103.3
				c-0.11,0.44-0.22,0.87-0.32,1.31l1.15-0.81L138.94,103.3z M113.76,74.25c2.39,0,4.74,0.85,6.6,2.45
				c2.01,1.74,3.24,4.18,3.46,6.79c1.14-2.19,3.05-3.96,5.36-4.85c2.88-1.1,6.14-0.94,8.79,0.63l1.37,0.81l0.91-13.11
				c0.19-2.65,1.41-5.12,3.4-6.87l9.86-8.68l-12.18-4.92c-2.46-0.99-4.43-2.92-5.48-5.35l-5.21-12.06l-8.44,10.06
				c-1.71,2.03-4.15,3.31-6.79,3.56l-13.08,1.22l6.96,11.13c1.41,2.25,1.87,4.97,1.29,7.56l-2.88,12.81l3.61-0.9
				C112.13,74.35,112.95,74.25,113.76,74.25z"/>
		</g>
		<g>
			<g>
				<path class="st9" d="M148.61,130.38c-0.02,0.65-0.11,1.27-0.19,1.92c-2.17,16.66-11.09,33.57-26.74,40.7l-0.29-0.47
					c10.79-9.01,14.84-22.26,14.15-36.35c-0.07-1.36-0.42-5.01-0.59-5.21L148.61,130.38z"/>
			</g>
			<g>
				<path class="st8" d="M106.68,119.21c1.25,13.2,9.04,45.57,23.61,56.32l-0.28,0.47c-16.27-7.72-30.99-38.15-35.91-53.94
					L106.68,119.21z"/>
			</g>
			<g>
				<path class="st25" d="M140.58,67.29c-1.11,2.03-5.53,12.91-9.1,25.04c-3.9,13.17-6.55,26.57-7.57,40.16
					c-0.31,4.56-0.4,9.13-0.29,13.73c0.36,10.42,1.86,18.94,4.5,27.35l-0.5,0.22c-17.48-30.97-17.5-75.73-10.84-110.34l0.37-1.87
					c0.14-0.66,0.25-1.22,0.45-2.02L140.58,67.29z"/>
			</g>
			<g>
				<path class="st16" d="M137.97,175.99c0,7.65-6.2,13.85-13.85,13.85s-13.85-6.2-13.85-13.85c0-7.65,6.2-13.85,13.85-13.85
					S137.97,168.35,137.97,175.99z"/>
			</g>
			<g>
				<path class="st16" d="M140.58,67.29l-22.98-7.75c-1,3.97-3.2,16.28-4.21,28.82l8.9-2.22l9.37,5.55
					C135.2,79.83,139.5,69.29,140.58,67.29z"/>
			</g>
			<g>
				<polygon class="st26" points="148.26,97.1 122.89,82.06 94.28,89.2 100.74,60.43 85.11,35.43 114.47,32.68 133.42,10.09 
					145.11,37.16 172.45,48.2 150.31,67.68 				"/>
			</g>
			<g>
				<polygon class="st27" points="123.32,79.14 97.92,85.48 103.65,59.93 89.77,37.73 115.84,35.29 132.67,15.23 143.05,39.27 
					167.32,49.08 147.67,66.37 145.84,92.49 				"/>
			</g>
			<g class="st28">
				<path class="st27" d="M104.18,79.94c22.47,0,40.95-17.04,43.24-38.9l-4.37-1.76l-10.38-24.04l-16.83,20.06l-26.07,2.44
					l13.88,22.2l-4.43,19.72C100.85,79.84,102.5,79.94,104.18,79.94z"/>
			</g>
			<g>
				<rect x="83.12" y="189.84" class="st13" width="85.38" height="42.85"/>
			</g>
			<g>
				<path class="st29" d="M83.12,189.84c0,0,51.1,5.54,51.88,11.72l13.51,20.07l1.27,11.05h18.72v-42.85H83.12z"/>
			</g>
			<g>
				<path class="st12" d="M177.82,239.91H73.81v-0.83c0-3.53,2.86-6.4,6.4-6.4h91.21c3.53,0,6.4,2.86,6.4,6.4V239.91z"/>
			</g>
			<g>
				<path class="st30" d="M135.07,147.05l0.96,0.01l5.9,5.96c4-7.58,6.48-17.33,6.68-22.64l-13.66,0.6
					C135.16,131.23,136.25,138.87,135.07,147.05z"/>
			</g>
			<g>
				<polygon class="st31" points="137.64,143.26 148.98,154.7 154.12,139.44 168.51,132.2 155.58,122.59 153.14,106.67 
					140.01,115.99 124.11,113.39 128.92,128.77 121.54,143.08 				"/>
			</g>
			<g>
				<polygon class="st32" points="138.79,140.54 125.99,140.4 131.86,129.02 128.04,116.8 140.67,118.87 151.11,111.46 
					153.05,124.11 163.33,131.75 151.89,137.51 147.8,149.64 				"/>
			</g>
			<g>
				<rect x="102.29" y="201.56" class="st12" width="46.23" height="20.07"/>
			</g>
			<g>
				<g>
					<polygon class="st12" points="119.01,221.64 103.09,201.56 102.29,201.56 102.29,204.07 116.22,221.64 					"/>
				</g>
				<g>
					<polygon class="st12" points="111.82,221.64 102.29,209.62 102.29,211.38 110.43,221.64 					"/>
				</g>
				<g>
					<polygon class="st12" points="125.58,221.64 109.66,201.56 108.26,201.56 124.19,221.64 					"/>
				</g>
				<g>
					<polygon class="st12" points="131.62,221.64 115.7,201.56 113.61,201.56 129.53,221.64 					"/>
				</g>
			</g>
			<g>
				<rect x="88" y="179.06" class="st12" width="75.08" height="10.78"/>
			</g>
			<g>
				<path class="st6" d="M158.71,179.06H92.92v-1.32c0-5.23,4.24-9.46,9.46-9.46h46.86c5.23,0,9.46,4.24,9.46,9.46V179.06z"/>
			</g>
			<g>
				<path class="st33" d="M149.25,168.29h-7.81c5.23,0,9.46,4.24,9.46,9.46v1.32h7.81v-1.32
					C158.71,172.52,154.47,168.29,149.25,168.29z"/>
			</g>
			<g>
				<path class="st6" d="M106.68,119.21l-12.57,2.85c1.33,4.27,3.37,9.6,5.97,15.27l4.34-3.26l5.06,0.68
					C107.98,128.61,107.05,123.08,106.68,119.21z"/>
			</g>
			<g>
				<polygon class="st12" points="119.34,132.23 103.38,130.07 90.5,139.75 87.62,123.91 74.44,114.66 88.62,107.02 93.34,91.62 
					104.98,102.75 121.09,102.48 114.1,116.99 				"/>
			</g>
			<g>
				<polygon class="st34" points="90.11,122.31 79.63,114.96 90.9,108.89 94.65,96.65 103.91,105.5 116.71,105.28 111.16,116.82 
					115.32,128.93 102.63,127.21 92.4,134.91 				"/>
			</g>
		</g>
	</g>
</g>
<g id="Alimentos" class="st0">
	<g class="st1">
		<path class="st35" d="M125.25,241.7c-57.99,25.07-96.2-56.26-96.2-109.19c0-51.2,39.42-81.04,90.69-58.6
			c-4.38-7.03-11.08-17.36-19.76-26.97c-6.93-8.48-21.43-18.99-21.43-18.99c-1.92-1.72-1.72-3.88,0.54-5.04l17.27-8
			c2.39-1.18,5.52-0.47,7.2,1.99c0,0,12.74,17.96,27.67,56.47c45.93-20.66,89.71,8.41,89.71,59.14
			C220.95,185.45,180.3,265.96,125.25,241.7L125.25,241.7z M129.78,56.8L129.78,56.8c-2.39-0.25-4.81-2.67-5.05-5.09
			c0,0-1.64-20.92,12.5-35.32C151.9,1.95,172.6,3.68,172.6,3.68c2.68,0.19,5.03,2.59,5.27,5.23c0,0,1.69,20.65-12.71,35.39
			C150.73,58.45,129.78,56.8,129.78,56.8L129.78,56.8z"/>
	</g>
</g>
<g id="Salud" class="st0">
	<g class="st1">
		<path class="st35" d="M142.15,158.66l-14.82,36.07c-0.73,1.94-2.83,3.34-4.93,3.34h-0.14c-2.28,0-4.23-1.4-4.97-3.34L76.6,101.31
			l-14.58,27.68c-0.71,1.81-2.65,2.87-4.6,2.87H22.4c0.43,0.72,0.74,1.36,0.99,1.92l9.44,12.73c2.44,2.71,4.99,5.55,7.78,8.26
			c31.46,31.68,53.15,55.1,66.64,70.05c9.59,10.8,24.88,10.92,34.61,0.15c12.87-14.53,33.36-36.67,62.55-66.31H142.15z
			 M182.31,17.02L182.31,17.02c-16.36,0-31.33,5.84-42.39,15.43c-11.26,9.39-20.08,9.39-31.34,0C97.39,22.99,82.57,17.16,66.25,17.3
			c-25.14,0-46.9,13.63-56.77,33.57c-6.4,12.87-5.51,36.37-1.32,49.82c1.8,6.59,4.8,13.98,8.81,21.7c0.59-0.3,1.52-0.57,2.23-0.57
			h34.76L72.22,86.8c1.06-1.82,3.14-3,5.08-2.86c2.28,0.16,4.04,1.32,4.96,3.14l40,92.22l11.17-27.59c0.78-1.87,2.88-3.07,5.1-3.07
			h69.79c1.67,0,2.99,0.58,3.89,1.3c1.67-1.94,3.61-4.64,5.55-7.14c5.06-6.47,15.71-21.75,20.5-35.08
			c6.88-18.69,6.88-32.46,6.88-32.46C245.15,42.94,216.89,16.86,182.31,17.02L182.31,17.02z M178.83,46.82L178.83,46.82
			c14.97,0,27.24,10.17,27.24,22.58c0,3.77,3.47,6.91,7.51,6.91c3.9,0,7.3-3.14,7.3-6.91c0-20.05-18.82-36.18-42.05-36.18
			c-4.03,0-7.51,2.98-7.51,6.67C171.32,43.8,174.8,46.82,178.83,46.82L178.83,46.82z M169.39,61L169.39,61
			c10.77,0,19.62,7.23,19.62,16.2c0,2.72,2.22,4.94,5.13,4.94c2.99,0,5.34-2.23,5.34-4.94c0-14.24-13.47-25.89-30.09-25.89
			c-2.84,0-5.2,2.11-5.2,4.95C164.19,58.92,166.55,61,169.39,61L169.39,61z M159.82,73.73L159.82,73.73
			c8.51,0,15.75,5.89,15.75,12.92c0,2.22,1.76,3.88,4.18,3.88c2.25,0,4.19-1.66,4.19-3.88c0-11.39-10.93-20.72-24.12-20.72
			c-2.24,0-4.18,1.67-4.18,3.76C155.64,71.97,157.58,73.73,159.82,73.73L159.82,73.73z"/>
	</g>
</g>
<g id="Mascotas" class="st0">
	<g class="st1">
		<path class="st36" d="M49.92,155.3c9.73,0,17.65-10.63,17.65-23.69s-7.92-23.69-17.65-23.69c-9.74,0-17.65,10.63-17.65,23.69
			S40.18,155.3,49.92,155.3z"/>
		<path class="st36" d="M91.99,155.3c9.72,0,17.65-10.63,17.65-23.69s-7.92-23.69-17.65-23.69c-9.74,0-17.65,10.63-17.65,23.69
			S82.25,155.3,91.99,155.3z"/>
		<path class="st36" d="M124.94,143.48c-7.66-1.51-15.21,5.25-17.2,15.39c-1.99,10.13,2.43,19.24,10.09,20.75
			c7.65,1.51,15.21-5.25,17.2-15.38C137.02,154.1,132.58,144.99,124.94,143.48z"/>
		<path class="st36" d="M34.17,158.87c-2-10.14-9.55-16.89-17.2-15.39c-7.65,1.51-12.09,10.62-10.09,20.76
			c1.99,10.13,9.56,16.88,17.2,15.38C31.74,178.11,36.17,169,34.17,158.87z"/>
		<path class="st36" d="M97.59,184.94c-2.08-12.83-13.23-22.67-26.64-22.67s-24.57,9.83-26.64,22.67
			c-9.55,4.16-16.24,13.69-16.24,24.75c0,14.88,12.11,26.99,26.99,26.99c5.94,0,11.43-1.93,15.89-5.19
			c4.46,3.26,9.95,5.19,15.89,5.19c14.88,0,26.99-12.11,26.99-26.99C113.83,198.63,107.14,189.1,97.59,184.94z"/>
		<path class="st36" d="M160.97,60.7c9.73,0,17.65-10.63,17.65-23.69s-7.92-23.69-17.65-23.69c-9.74,0-17.65,10.63-17.65,23.69
			S151.23,60.7,160.97,60.7z"/>
		<path class="st36" d="M203.04,60.7c9.72,0,17.65-10.63,17.65-23.69s-7.92-23.69-17.65-23.69c-9.74,0-17.65,10.63-17.65,23.69
			C185.39,50.07,193.31,60.7,203.04,60.7z"/>
		<path class="st36" d="M235.99,48.88c-7.66-1.51-15.21,5.25-17.2,15.39c-1.99,10.13,2.43,19.24,10.09,20.75
			c7.65,1.51,15.21-5.25,17.2-15.38C248.08,59.5,243.64,50.39,235.99,48.88z"/>
		<path class="st36" d="M135.13,85.02c7.66-1.51,12.08-10.62,10.09-20.75c-2-10.14-9.55-16.89-17.2-15.39
			c-7.65,1.51-12.09,10.62-10.09,20.76C119.93,79.77,127.49,86.52,135.13,85.02z"/>
		<path class="st36" d="M208.65,90.34c-2.08-12.83-13.23-22.67-26.64-22.67s-24.57,9.83-26.64,22.67
			c-9.55,4.16-16.24,13.69-16.24,24.75c0,14.88,12.11,26.99,26.99,26.99c5.94,0,11.43-1.93,15.89-5.19
			c4.46,3.26,9.95,5.19,15.89,5.19c14.88,0,26.99-12.11,26.99-26.99C224.89,104.03,218.19,94.5,208.65,90.34z"/>
	</g>
</g>
<g id="Comida" class="st0">
	<g class="st1">
		<path class="st35" d="M212.02,38.09C188.7,14.79,158.03,2.09,125,2.09c-32.99,0-63.64,12.71-86.95,36.01
			C14.76,61.41,2.13,92.01,2.13,125.04c0,32.98,12.63,63.62,35.92,86.93c23.31,23.32,53.97,35.95,86.95,35.95
			c33.03,0,63.7-12.63,87.01-35.95c23.31-23.31,35.85-53.89,35.85-86.93C247.87,92.01,235.33,61.41,212.02,38.09L212.02,38.09z
			 M177.53,182.81c-2.03-2.35-4.84-4.89-9.25-5.83c0-99.05,23.33-112.62,23.33-112.62h2.88c0,0,0.51,127.27,0.51,132.61
			c0,1.37,0,5.35,0,10.68c23.29-20,38.38-49.57,38.38-82.61c0-59.76-48.57-108.29-108.36-108.29c-59.75,0-108.3,48.53-108.3,108.29
			c0,37.36,19.39,70.91,48.55,90.34c0-18.9,0-36.43,0-38.88c3.89-10.7,7.79-29.59,2.03-37.87c-10.26-2.89-22.47-16.99-22.47-36.97
			c0-19.84,10.7-37.8,29.69-38.37l0,0h0.48c18.9,0.49,29.59,18.54,29.59,38.37c0,19.98-12.13,34.09-22.3,36.97
			c-5.85,8.18-1.94,27.17,1.96,37.87c0,2.96,0,27.27,0,49.12c12.59,4.84,26.18,7.72,40.76,7.72c1,0,1.44,0,2.52,0
			c0-23.33,0-53.4,0-56.36c0-4.84,11.61-47.03-5.49-66.02c-5.25-3.96-8.67-10.24-8.67-17.52c0-0.45,0.51-2.38,0.51-2.38l5.78-45.77
			h4.39L125,99.27l3.44-53.97h4.84l2.45,53.97l2.89-53.97h4.34l3.46,53.97l1.44-53.97h4.84l5.83,48.15c0,0,0,0.99,0,1.44
			c-0.51,5.83-2.88,11.17-7.27,15.05l0,0c-16.02,16.54-6.28,61.71-6.28,67.04c0,3.48,0,31.59,0,54.42
			c11.61-1.88,22.28-5.78,32.54-11.62C177.53,207.65,177.53,194.96,177.53,182.81L177.53,182.81z"/>
	</g>
</g>
<g id="Servicios_Profecionales" class="st0">
	<g class="st1">
		<path class="st35" d="M85.31,141.38c-53.11,29.68-79.95,12.68-79.95,85.06H117.4h1.13h43.25l7.25-20.39l1.31-11.72l-12.34-14.07
			l12.34-14.24l0.91-13.58c-6.97-3.02-14.55-6.48-22.71-11.07c-8.86,8.36-19.66,14.05-31.15,14.05
			C105.41,155.43,94.3,149.74,85.31,141.38L85.31,141.38z M197.33,171.06L197.33,171.06l0.83,4.17l4.61-2.09v18.82h5.49v-23.84
			h-4.74L197.33,171.06z M235.57,212.65L235.57,212.65l-17.07,1.3l-8.83,7.54l9.19,25.9l9.47-14.48l16.31,5.34L235.57,212.65z
			 M231.35,207.13L231.35,207.13l1.26-15.17l9.95-11.69l-9.95-11.58l-1.26-15.31l-15.2-1.08l-11.51-10.09l-11.72,10.09l-15.31,1.08
			l-0.95,15.31l-10.13,11.58l10.13,11.69l0.95,15.17l15.31,1.11l11.72,10.13l11.51-10.13L231.35,207.13z M204.29,201.4L204.29,201.4
			c-11.71,0-21.33-9.59-21.33-21.29c0-11.82,9.63-21.35,21.33-21.35c11.86,0,21.33,9.53,21.33,21.35
			C225.62,191.82,216.15,201.4,204.29,201.4L204.29,201.4z M173.51,212.65L173.51,212.65l-9,25.61l16.44-5.34l9.15,14.48l9.2-25.9
			l-8.71-7.54L173.51,212.65z M204.13,226.44L204.13,226.44h0.16H204.13z M167.97,66.8L167.97,66.8c-1.44-0.94-2.84-0.65-3.8,1.08
			c0,0,4.86-26.05,1.11-37.15c-8.02-28.41-75.55-36.5-75.55-18.76C60.81,20.1,66.19,47.51,70.32,68.2c0,0-1.96-2.52-4.74,0
			c-3.05,3.27,0.27,11.39,1.53,15.16c0.82,3.05,1.74,4.91,2.39,6.5c0,0.13,0,0.65,0,0.97c0,2.8,1.29,5.03,2.71,5.03h0.13
			c6.83,25.76,26.9,47.1,45.07,47.1c16.72,0,37.43-21.34,43.92-47.1c1.62-0.1,2.7-2.23,2.7-5.03v-0.69c0.78-1.4,1.75-3.58,2.52-6.78
			C167.65,79.9,171.62,69.5,167.97,66.8L167.97,66.8z"/>
	</g>
</g>
<g id="Tecnologia" class="st0">
	<g class="st1">
		<path class="st37" d="M184.61,2.6H65.36c-5.4,0-9.7,4.34-9.7,9.74v224.95c0,5.52,4.31,10.13,9.7,10.13h119.25
			c5.51,0,9.74-4.6,9.74-10.13V12.33C194.35,6.94,190.12,2.6,184.61,2.6L184.61,2.6z M163.32,151.07h10.9
			c-3.34,6.96-8.64,12.35-15.7,16.38c-8.05,4.53-17.84,6.76-29.42,6.76c-11.28,0-20.98-1.94-29.12-5.65
			c-8.16-3.85-14.24-9.45-18.25-16.88c-4.02-7.47-5.98-15.49-5.98-24.21c0-9.63,2.24-18.58,6.75-26.8
			c4.52-8.21,10.8-14.51,18.64-18.64c7.85-4.09,16.87-6.18,26.96-6.18c8.56,0,16.18,1.69,22.87,5.03
			c6.69,3.3,11.76,8.05,15.31,14.23c3.52,6.11,5.3,12.83,5.3,20.08c0,8.73-2.75,16.59-8.03,23.56
			c-6.69,8.91-15.32,13.34-25.83,13.34c-2.82,0-4.89-0.51-6.36-1.51c-1.36-0.94-2.35-2.44-2.83-4.31
			c-4.02,3.84-8.66,5.82-13.85,5.82c-5.67,0-10.38-1.98-14.1-5.9c-3.72-3.92-5.61-9.04-5.61-15.48c0-8.04,2.27-15.34,6.76-21.87
			c5.4-8.04,12.46-12.07,20.9-12.07c6.08,0,10.59,2.26,13.44,6.96l1.28-5.67h13.42l-7.74,36.5c-0.39,2.32-0.68,3.8-0.68,4.49
			c0,0.86,0.2,1.47,0.57,1.93c0.42,0.39,0.9,0.58,1.36,0.58c1.7,0,3.85-0.94,6.4-2.91c3.43-2.55,6.27-6.06,8.45-10.42
			c2.15-4.38,3.23-8.91,3.23-13.51c0-8.34-3.04-15.44-9.12-20.97c-6.09-5.72-14.51-8.48-25.31-8.48c-9.23,0-17.07,1.87-23.54,5.61
			c-6.36,3.8-11.17,9.12-14.42,15.97c-3.23,6.79-4.89,13.94-4.89,21.31c0,7.25,1.77,13.72,5.39,19.68
			c3.63,5.89,8.73,10.21,15.29,12.86c6.59,2.73,14.03,4.12,22.46,4.12c8.16,0,15.12-1.17,21-3.41
			C155.12,159.11,159.81,155.65,163.32,151.07L163.32,151.07z M108.35,130.08c0,4.34,0.86,7.58,2.52,9.62
			c1.77,1.95,3.95,3.01,6.57,3.01c1.86,0,3.74-0.46,5.39-1.43c1.27-0.68,2.56-1.76,3.84-3.22c1.76-2.09,3.34-5.03,4.7-9.06
			c1.28-4.02,1.87-7.65,1.87-11.17c0-3.85-0.9-6.79-2.65-8.84c-1.77-2.04-4.02-3.05-6.78-3.05c-2.84,0-5.58,1.08-8.05,3.39
			c-2.46,2.22-4.29,5.45-5.58,9.69C108.91,123.22,108.35,126.85,108.35,130.08L108.35,130.08z M104.1,23.17L104.1,23.17
			c0.4,0,1.17,0.3,1.17,1.08c0,0.8-0.77,1.19-1.17,1.19c-0.78,0-1.17-0.4-1.17-1.19C102.93,23.47,103.32,23.17,104.1,23.17
			L104.1,23.17z M95.58,21.6L95.58,21.6c1.19,0,2.37,1.07,2.37,2.65c0,1.19-1.18,2.38-2.37,2.38c-1.58,0-2.74-1.18-2.74-2.38
			C92.84,22.67,94,21.6,95.58,21.6L95.58,21.6z M84.79,20.44L84.79,20.44c1.84,0,3.43,1.55,3.43,3.42c0,1.58-1.59,3.12-3.43,3.12
			c-1.97,0-3.15-1.53-3.15-3.12C81.64,22,82.82,20.44,84.79,20.44L84.79,20.44z M73.13,20.02L73.13,20.02
			c1.94,0,3.52,1.58,3.52,3.85c0,1.98-1.58,3.56-3.52,3.56c-2.37,0-3.94-1.58-3.94-3.56C69.19,21.6,70.76,20.02,73.13,20.02
			L73.13,20.02z M124.98,211.78L124.98,211.78c8.17,0,14.73,6.57,14.73,14.73c0,8.11-6.56,14.73-14.73,14.73
			c-8.11,0-14.69-6.62-14.69-14.73C110.29,218.35,116.86,211.78,124.98,211.78L124.98,211.78z M111.85,23.17L111.85,23.17h24.83
			c1.06,0,1.84,0.69,1.84,1.45c0,1.22-0.79,2.01-1.84,2.01h-24.83c-1.17,0-1.96-0.79-1.96-2.01
			C109.89,23.86,110.68,23.17,111.85,23.17L111.85,23.17z M183.16,208.25L183.16,208.25H66.91V41.31h116.25V208.25z"/>
	</g>
</g>
<g id="Construccion" class="st0">
	<g class="st1">
		<path class="st37" d="M132.16,36.45H52.19c-4.03-5.35-9.36-8.06-14.69-8.06c-10.67,0-18.64,8.06-18.64,18.68
			c0,6.67,4,12,10.64,15.96v20l0,0l-8,9.36c0,1.29,0,2.67,0,4c0,1.32,1.36,1.32,2.68,1.32h25.36c1.28,0,2.64,0,2.64-1.32
			c1.29-1.33,1.29-2.71,0-4l-7.97-9.36l0,0v-20c5.33-2.65,7.97-6.68,10.68-12h71.94l-25.34,84.04l-2.66,9.29c-1.36,1.36,0,4,0,4
			c1.31,1.32,2.66,2.68,3.96,2.68h113.33c2.69,0,5.33-2.68,5.33-5.32V40.38c0-2.61-2.64-5.33-5.33-5.33h-80.01
			C134.8,35.06,133.48,35.06,132.16,36.45L132.16,36.45z M197.52,121.7c0,2.66-1.42,3.98-4.08,3.98h-59.97c-1.32,0-2.71,0-3.99-1.32
			c0-1.34,0-2.66,0-2.66l17.27-58.67c0-1.33,2.69-2.65,4.04-2.65h42.65c2.65,0,4.08,1.32,4.08,4V121.7z M220.14,168.33H89.52
			c-14.69,0-26.66,12.08-26.66,26.71c0,14.61,11.97,26.58,26.66,26.58h130.62c14.6,0,26.67-11.97,26.67-26.58
			C246.81,180.4,234.74,168.33,220.14,168.33L220.14,168.33z M98.84,204.32c-5.33,0-10.69-4-10.69-9.28c0-5.32,5.36-9.32,10.69-9.32
			c5.34,0,9.27,4.01,9.27,9.32C108.12,200.32,104.19,204.32,98.84,204.32L98.84,204.32z M136.12,204.32c-5.35,0-9.28-4-9.28-9.28
			c0-5.32,3.93-9.32,9.28-9.32c5.33,0,9.38,4.01,9.38,9.32C145.51,200.32,141.45,204.32,136.12,204.32L136.12,204.32z
			 M174.77,204.32c-5.29,0-10.58-4-10.58-9.28c0-5.32,5.28-9.32,10.58-9.32c5.33,0,9.37,4.01,9.37,9.32
			C184.14,200.32,180.1,204.32,174.77,204.32L174.77,204.32z M212.1,204.32c-5.36,0-9.26-4-9.26-9.28c0-5.32,3.9-9.32,9.26-9.32
			c5.32,0,9.36,4.01,9.36,9.32C221.46,200.32,217.42,204.32,212.1,204.32L212.1,204.32z M56.15,105.67
			c-1.25-1.32-2.68-2.64-5.33-2.64H22.86c-1.36,0-4,1.32-4,2.64l-14.68,24c-1.32,1.36-1.32,4.08,0,5.4L18.86,159
			c0,2.71,2.64,2.71,4,2.71h3.97c1.36,0,4.04-1.4,4.04-4.03v-5.34c0-2.67-2.68-3.99-4.04-3.99h-3.97c-1.36,0-1.36,0-1.36-1.32
			v-22.68c0,0,0-1.34,1.36-1.34h29.34v1.34v22.68c0,1.32,0,1.32,0,1.32h-4.03c-2.69,0-3.94,1.32-3.94,3.99v5.34
			c0,2.63,1.25,4.03,3.94,4.03h2.67c2.65,0,4.08,0,5.33-2.71l13.36-23.93c1.28-1.32,1.28-4.03,0-5.4L56.15,105.67z M37.5,55.07
			c-5.31,0-9.31-4.04-9.31-8c0-5.29,4.01-9.29,9.31-9.29c4.05,0,9.37,4,9.37,9.29C46.86,51.03,41.55,55.07,37.5,55.07L37.5,55.07z"
			/>
	</g>
</g>
<g id="Belleza" class="st0">
	<g class="st1">
		<path class="st35" d="M204.21,6.88l4.71,1.36c2.97,0.85,4.68,3.74,3.92,6.79l-24.64,91.22l23.9,89.8
			c13.24,0.62,23.86,11.47,23.86,24.82c0,13.73-11.19,24.69-24.78,24.69c-13.7,0-24.82-10.96-24.82-24.69
			c0-8.33,4.02-15.76,10.33-20.21l-16.93-63.55l-16.97,63.03c6.73,4.59,11.05,12.16,11.05,20.72c0,13.73-11.05,24.69-24.86,24.69
			c-13.71,0-24.84-10.96-24.84-24.69c0-12.99,10.19-23.85,23.08-24.7l24.35-89.91l-24.19-91.38c-0.96-3.01,0.81-6,3.88-6.76
			l4.8-1.28c2.97-0.8,5.95,1.06,6.87,3.8l17.04,64.5l17.37-64.35c0.84-2.89,3.79-4.6,6.77-3.9H204.21z M148.99,204.36
			c-9.12,0-16.55,7.38-16.55,16.49c0,9.07,7.43,16.51,16.55,16.51c9.13,0,16.63-7.44,16.63-16.51
			C165.62,211.66,158.12,204.36,148.99,204.36L148.99,204.36z M211.18,204.36c-9.12,0-16.61,7.38-16.61,16.49
			c0,9.07,7.49,16.51,16.61,16.51c9.15,0,16.41-7.44,16.41-16.51C227.68,211.66,220.33,204.36,211.18,204.36L211.18,204.36z
			 M21.84,4.46h62.61c4.19,0,7.42,3.22,7.77,7.31l-55.86-0.09c-4.25,0-7.79,3.68-7.79,7.82v202.06c0,4.24,3.54,7.73,7.79,7.73h55.86
			v1.11c0,4.32-3.44,7.73-7.77,7.73H21.84c-4.18,0-7.8-3.41-7.8-7.73V12.34C14.04,8.03,17.66,4.46,21.84,4.46L21.84,4.46z
			 M91.76,16.17H36.91c-0.41,1.1-0.71,2.03-0.71,3.33v1.12h55.57c0.26,0,0.46-0.06,0.46-0.36v-3.62c0-0.35-0.2-0.42-0.46-0.42V16.17
			z M91.76,219.88H36.2v1.68c0,0.99,0.16,1.92,0.57,2.78h55c0.26,0,0.46-0.08,0.46-0.36v-3.6
			C92.22,220.15,92.03,219.88,91.76,219.88L91.76,219.88z M91.76,210.6H36.2v4.44h55.57c0.26,0,0.46-0.05,0.46-0.35v-3.6
			C92.22,210.88,92.03,210.6,91.76,210.6L91.76,210.6z M91.76,201.33H36.2v4.61h55.57c0.26,0,0.46-0.29,0.46-0.52v-3.62
			C92.22,201.54,92.03,201.33,91.76,201.33L91.76,201.33z M91.76,192.06H36.2v4.59h55.57c0.26,0,0.46-0.14,0.46-0.5v-3.59
			C92.22,192.25,92.03,192.06,91.76,192.06L91.76,192.06z M91.76,182.86H36.2v4.44h55.57c0.26,0,0.46-0.03,0.46-0.35v-3.73
			C92.22,183.16,92.03,182.86,91.76,182.86L91.76,182.86z M91.76,173.6H36.2v4.45h55.57c0.26,0,0.46-0.09,0.46-0.36v-3.61
			C92.22,173.88,92.03,173.6,91.76,173.6L91.76,173.6z M91.76,164.33H36.2v4.43h55.57c0.26,0,0.46-0.11,0.46-0.33v-3.6
			C92.22,164.52,92.03,164.33,91.76,164.33L91.76,164.33z M91.76,155.06H36.2v4.6h55.57c0.26,0,0.46-0.3,0.46-0.36v-3.76
			C92.22,155.26,92.03,155.06,91.76,155.06L91.76,155.06z M91.76,145.78H36.2v4.56h55.57c0.26,0,0.46-0.22,0.46-0.37v-3.77
			C92.22,146.15,92.03,145.78,91.76,145.78L91.76,145.78z M91.76,136.53H36.2v4.66h55.57c0.26,0,0.46-0.36,0.46-0.51v-3.74
			C92.22,136.88,92.03,136.53,91.76,136.53L91.76,136.53z M91.76,127.17H36.2v4.73h55.57c0.26,0,0.46-0.36,0.46-0.48v-3.76
			C92.22,127.6,92.03,127.17,91.76,127.17L91.76,127.17z M91.76,118.05H36.2v4.59h55.57c0.26,0,0.46-0.3,0.46-0.48v-3.76
			C92.22,118.26,92.03,118.05,91.76,118.05L91.76,118.05z M91.76,108.76H36.2v4.54h55.57c0.26,0,0.46-0.2,0.46-0.41v-3.78
			C92.22,109.01,92.03,108.76,91.76,108.76L91.76,108.76z M91.76,99.57H36.2v4.48h55.57c0.26,0,0.46-0.23,0.46-0.35v-3.78
			C92.22,99.73,92.03,99.57,91.76,99.57L91.76,99.57z M91.76,90.32H36.2v4.44h55.57c0.26,0,0.46-0.21,0.46-0.49v-3.6
			C92.22,90.46,92.03,90.32,91.76,90.32L91.76,90.32z M91.76,81.03H36.2v4.49h55.57c0.26,0,0.46-0.16,0.46-0.35v-3.77
			C92.22,81.17,92.03,81.03,91.76,81.03L91.76,81.03z M91.76,71.78H36.2v4.6h55.57c0.26,0,0.46-0.29,0.46-0.5v-3.59
			C92.22,71.98,92.03,71.78,91.76,71.78L91.76,71.78z M91.76,62.5H36.2v4.52h55.57c0.26,0,0.46-0.19,0.46-0.42v-3.67
			C92.22,62.71,92.03,62.5,91.76,62.5L91.76,62.5z M91.76,53.32H36.2v4.43h55.57c0.26,0,0.46-0.2,0.46-0.48v-3.6
			C92.22,53.44,92.03,53.32,91.76,53.32L91.76,53.32z M91.76,44.05H36.2v4.45h55.57c0.26,0,0.46-0.15,0.46-0.5v-3.59
			C92.22,44.16,92.03,44.05,91.76,44.05L91.76,44.05z M91.76,34.77H36.2v4.44h55.57c0.26,0,0.46-0.15,0.46-0.51v-3.46
			C92.22,34.82,92.03,34.77,91.76,34.77L91.76,34.77z M91.76,25.5H36.2v4.45h55.57c0.26,0,0.46-0.12,0.46-0.49v-3.53
			C92.22,25.55,92.03,25.5,91.76,25.5L91.76,25.5z"/>
	</g>
</g>
<g id="Moda" class="st0">
	<g class="st1">
		<path class="st37" d="M108.14,112.42c1.31,0,2.33,0.99,2.33,2.3c0,1.18-1.03,2.23-2.33,2.23c-1.18,0-2.21-1.04-2.21-2.23
			C105.94,113.42,106.96,112.42,108.14,112.42L108.14,112.42z M83.89,120.92c-6.49,31.87-10.97,69.66-17.98,100.08
			c42.04-20.95,33.8,52.66,118.17,3.53L160.7,120.92h-27.24v-12.24l26.17,0.1l9.53-60.61V8.21H152.1l-1.03,37.09
			c-18.08,6.11-36.05,7.14-55.88,0.27c0.1-12.05-0.74-24.47-0.65-36.52L76.54,8.86v36.71l8.72,62.84l32.91,0.19v-3.62
			c0-0.67,0.66-1.3,1.39-1.3h10.85c0.73,0,1.26,0.64,1.26,1.3v0.38l0,0v18.25l0,0v0.57c0,0.72-0.53,1.28-1.26,1.28h-10.85
			c-0.73,0-1.39-0.56-1.39-1.28v-3.26H83.89z M121.14,120.56h7.25c0.26,0,0.46,0.28,0.46,0.57v0.28c0,0.25-0.2,0.44-0.46,0.44h-7.25
			c-0.2,0-0.47-0.19-0.47-0.44v-0.28C120.67,120.84,120.85,120.56,121.14,120.56L121.14,120.56z M121.14,107.3h7.25
			c0.26,0,0.46,0.17,0.46,0.45v0.38c0,0.27-0.2,0.46-0.46,0.46h-7.25c-0.29,0-0.47-0.19-0.47-0.46v-0.38
			C120.67,107.47,120.85,107.3,121.14,107.3L121.14,107.3z M124.85,112.42c1.18,0,2.22,0.99,2.22,2.3c0,1.18-1.03,2.23-2.22,2.23
			c-1.32,0-2.31-1.04-2.31-2.23C122.54,113.42,123.53,112.42,124.85,112.42L124.85,112.42z M116.51,112.42
			c1.29,0,2.32,0.99,2.32,2.3c0,1.18-1.03,2.23-2.32,2.23c-1.21,0-2.25-1.04-2.25-2.23C114.26,113.42,115.3,112.42,116.51,112.42
			L116.51,112.42z"/>
	</g>
</g>
<g id="Hogar" class="st0">
	<g class="st1">
		<path class="st35" d="M53.71,9.96h57.53h4.13l-2.68,3.6L55.2,81.57l-3.3-1.01V12.09V9.96H53.71z M38.68,240.04
			c61.69,0,110.9,0,172.63,0v-96.61h28.73L124.98,14.56L9.96,143.43h28.72V240.04z M148.79,124.98h28.89c4.73,0,8.57,3.91,8.57,8.62
			v69.91c0,4.74-3.84,8.61-8.57,8.61h-28.89c-4.71,0-8.67-3.87-8.67-8.61V133.6C140.12,128.89,144.08,124.98,148.79,124.98
			L148.79,124.98z M79.59,124.98h23.8c3.94,0,7.11,3.27,7.11,7.11v28.56c0,3.94-3.17,7.09-7.11,7.09h-23.8
			c-3.91,0-7.07-3.15-7.07-7.09V132.1C72.52,128.26,75.68,124.98,79.59,124.98L79.59,124.98z"/>
	</g>
</g>
<g id="Arte_Local" class="st0">
	<g class="st1">
		<path class="st36" d="M75,203.56C75,187.81,62.19,175,46.43,175s-28.57,12.81-28.57,28.57v14.28c0,7.87-6.89,14.76-14.76,14.76
			v14.28h29.04C55.78,246.89,75,227.19,75,203.56L75,203.56z"/>
		<path class="st36" d="M122.65,62.91c-3.81,1.03-6.08,4.93-5.05,8.75c0.98,3.67,4.75,6.09,8.75,5.05c3.84-1.03,6.07-4.95,5.05-8.75
			C130.36,64.13,126.42,61.89,122.65,62.91z"/>
		<path class="st36" d="M82.24,117.11c3.79,1.01,7.71-1.2,8.75-5.05c1.03-3.85-1.26-7.73-5.04-8.75h-0.01
			c-2.03-0.55-2.57-0.14-4.01,0.33c0.08,4.3,0.14,8.77,0.17,13.39C82.15,117.06,82.19,117.1,82.24,117.11z"/>
		<path class="st36" d="M160.97,178.34c-1.03-3.84-4.97-6.06-8.75-5.04c-3.88,1.04-6.06,5-5.05,8.75c1.02,3.8,4.9,6.05,8.75,5.05
			C159.73,186.06,161.99,182.16,160.97,178.34L160.97,178.34z"/>
		<path class="st36" d="M184.74,89.65c2.78-2.79,2.78-7.32,0-10.11c-2.78-2.78-7.31-2.8-10.11,0c-2.78,2.78-2.78,7.32,0.01,10.11
			C177.41,92.43,181.95,92.43,184.74,89.65z"/>
		<path class="st36" d="M139.7,17.49c-23.46,0.85-45,10.12-62.17,21.9c1.92,13.1,3.28,29.4,4.01,49.56
			c2.67-0.32,5.41-0.15,8.09,0.57c11.45,3.06,18.23,14.79,15.16,26.24c-2.59,9.68-11.34,15.89-20.66,15.89
			c-0.69,0-1.37-0.21-2.06-0.27c-0.09,11.42-0.35,22.73-0.84,33.52c7.32,3.04,13.03,7.09,16.77,12.33
			c7.56,10.62,5.55,23.08,4.75,26.65c-2.65,11.86,4.35,23.94,16.33,26.25c6.77,1.3,13.58,1.94,20.34,1.94
			c58.74,0,107.96-47.71,107.48-107.92C246.39,63.08,193.55,15.46,139.7,17.49z M164.52,69.45c8.37-8.36,21.96-8.36,30.31,0
			s8.36,21.95,0,30.31v0.01c-8.35,8.34-21.95,8.34-30.31,0C156.18,91.39,156.18,77.8,164.52,69.45L164.52,69.45z M103.8,75.35
			c-3.04-11.29,3.59-23.14,15.15-26.23c11.36-3.05,23.17,3.73,26.24,15.15c3.07,11.42-3.7,23.17-15.15,26.24
			C118.62,93.56,106.87,86.82,103.8,75.35L103.8,75.35z M159.61,200.89c-11.42,3.06-23.18-3.74-26.24-15.15
			c-3.07-11.42,3.7-23.17,15.15-26.24c11.5-3.06,23.19,3.73,26.24,15.16C177.84,186.09,171.04,197.83,159.61,200.89z M215.17,145.33
			c-3.06,11.45-14.82,18.22-26.24,15.15c-11.42-3.06-18.23-14.77-15.15-26.24c3.09-11.55,14.92-18.18,26.24-15.15
			C211.44,122.15,218.23,133.93,215.17,145.33L215.17,145.33z"/>
		<path class="st36" d="M196.32,132.89c-3.74-1.01-7.7,1.17-8.75,5.05c-1.03,3.85,1.26,7.73,5.04,8.75
			c3.91,1.01,7.74-1.28,8.75-5.05C202.39,137.83,200.12,133.91,196.32,132.89L196.32,132.89z"/>
		<path class="st36" d="M67.77,132.14c0.02-2.39,0.09-4.74,0.09-7.14c0-55.39-3.72-121.89-21.43-121.89S25.01,69.61,25.01,125
			c0,2.4,0.07,4.75,0.09,7.14H67.77z"/>
		<path class="st36" d="M46.43,160.71c7.44,0,14.34,2.08,20.45,5.43c0.31-6.41,0.54-13.01,0.71-19.71H25.28
			c0.16,6.7,0.4,13.3,0.71,19.71C32.09,162.79,38.99,160.71,46.43,160.71z"/>
	</g>
</g>
<g id="Educacion" class="st0">
	<g class="st1">
		<path class="st37" d="M246.85,90.57L123.23,29.88L3.15,87.62v5.4l120.08,57.91l51.02-24.9v-1.6l-41.3-21.78
			c-2.32,1.61-5.18,2.47-8.01,2.47c-7.97,0-14.51-6.58-14.51-14.55c0-8.13,6.54-14.53,14.51-14.53c8.01,0,14.56,6.4,14.56,14.53
			c0,0.35,0,0.85,0,1.25l48.74,25.44v1.87L246.85,90.57z M177.56,122.35v50.11l-0.5,20.94h-6.9v26.72l10.13-9.83l10.44,9.83V193.4
			h-6.39l0.6-74.12l-49.15-25.64c0.25-0.97,0.4-2.08,0.4-3.07c0-6.31-4.94-11.35-11.23-11.35c-6.11,0-11.19,5.04-11.19,11.35
			c0,6.17,5.08,11.18,11.19,11.18c2.96,0,5.69-1.22,7.66-3.07L177.56,122.35z M44.67,123.71v34.56
			c24.25,11.61,48.54,23.21,72.8,34.76c4.02,1.61,8.13,1.36,12.07,0l44.73-21.54v-34.61l-51.02,24.64L44.67,123.71z M187.89,164.95
			l13.65-6.68c0-0.08,0.15-0.22,0.15-0.37v-34.19l-13.51,6.5L187.89,164.95z"/>
	</g>
</g>
<g id="Jardineria" class="st0">
	<g id="_x30_01---Gardening_1_" class="st1">
		<path id="Shape_9_" class="st36" d="M130,243.57h74.43c2.02,0,3.73-1.5,3.99-3.5l12.01-92.96H114l12.01,92.96
			C126.27,242.07,127.98,243.57,130,243.57z"/>
		<path id="Shape_8_" class="st36" d="M113.09,70.16c7.45,4.67,16.11,7.02,24.9,6.76c6.83-0.05,13.62-1.03,20.19-2.91
			c2.43,6.25,4.06,12.79,4.82,19.46l0.14,9.43h-56.22c-1.16,0-2.26,0.5-3.02,1.37c-0.76,0.87-1.12,2.02-0.97,3.17l3.66,28.14
			c0.26,2,1.96,3.5,3.98,3.5h113.27c2.02,0,3.72-1.5,3.98-3.5l3.66-28.14c0.15-1.15-0.2-2.3-0.97-3.17
			c-0.76-0.87-1.86-1.37-3.02-1.37h-56.27l0.19-9.41c0.73-6.68,2.35-13.22,4.82-19.47c6.57,1.88,13.36,2.85,20.19,2.91
			c8.79,0.26,17.45-2.09,24.9-6.76c19.29-12.91,22.11-42.65,22.23-43.92c0.01-0.24-0.01-0.49-0.06-0.73c0-0.16-0.02-0.32-0.04-0.48
			c-0.1-0.48-0.29-0.94-0.56-1.35v-0.03c-0.04-0.06-0.1-0.09-0.14-0.14c-0.24-0.33-0.54-0.62-0.86-0.86
			c-0.15-0.1-0.31-0.18-0.47-0.26c-0.16-0.11-0.33-0.2-0.51-0.28c-1.16-0.4-28.62-10.03-47.99,2.94
			c-17.42,11.66-21.4,36.98-22.11,42.73c-1.65,2.26-2.88,4.81-3.62,7.51c-0.74-2.71-1.97-5.27-3.62-7.55
			c-0.7-5.8-4.71-31.05-22.11-42.69c-19.35-12.97-46.81-3.35-47.98-2.95c-0.18,0.08-0.35,0.17-0.51,0.28
			c-0.16,0.08-0.32,0.16-0.47,0.26c-0.33,0.24-0.62,0.53-0.87,0.86c-0.04,0.06-0.1,0.08-0.14,0.14v0.03
			c-0.27,0.41-0.46,0.87-0.56,1.35c-0.02,0.16-0.03,0.32-0.04,0.48c-0.05,0.24-0.08,0.49-0.08,0.73
			C90.97,27.5,93.8,57.24,113.09,70.16L113.09,70.16z M127.02,122.99h-8.04c-2.22,0-4.02-1.8-4.02-4.02s1.8-4.02,4.02-4.02h8.04
			c2.22,0,4.02,1.8,4.02,4.02S129.24,122.99,127.02,122.99z M171.23,114.95c2.22,0,4.02,1.8,4.02,4.02s-1.8,4.02-4.02,4.02H143.1
			c-2.22,0-4.02-1.8-4.02-4.02s1.8-4.02,4.02-4.02H171.23z"/>
		<path id="Shape_7_" class="st36" d="M38.59,92.68c4.97,2.87,11.1,2.87,16.07,0c4.97-2.87,8.04-8.17,8.05-13.91V22.5
			c0-8.88-7.2-16.08-16.08-16.08s-16.08,7.2-16.08,16.08v56.27C30.54,84.52,33.61,89.83,38.59,92.68z M46.63,18.48
			c2.22,0,4.02,1.8,4.02,4.02s-1.8,4.02-4.02,4.02c-2.22,0-4.02-1.8-4.02-4.02S44.41,18.48,46.63,18.48z"/>
		<path id="Shape_6_" class="st36" d="M38.59,101.49v13.83c0.03,0.03,0.05,0.08,0.04,0.12c2.21,22.11,5.79,32.84,8,35.33
			c2.21-2.49,5.79-13.22,8-35.33c-0.01-0.04,0.01-0.09,0.04-0.12v-13.83C49.47,103.36,43.79,103.36,38.59,101.49L38.59,101.49z"/>
		<path id="Shape_5_" class="st36" d="M46.63,239.55c20.1,0,40.19-59.49,40.19-89c0-22.11-10.13-31.09-24.55-34.17
			c-4.07,42.78-12.17,42.78-15.64,42.78c-3.46,0-11.57,0-15.64-42.8c-14.43,3.1-24.55,12.06-24.55,34.17
			C6.44,180.07,26.53,239.55,46.63,239.55z"/>
	</g>
</g>
<g id="Automovilismo" class="st0">
	<g class="st1">
		<path d="M64.28,133.48c-13.24,0-23.92,10.72-23.92,23.96c0,13.2,10.72,23.93,23.92,23.93c13.2,0,23.93-10.73,23.93-23.93
			C88.21,144.2,77.48,133.48,64.28,133.48L64.28,133.48z M64.28,164.66c-3.98,0-7.22-3.25-7.22-7.23s3.24-7.22,7.22-7.22
			c3.98,0,7.23,3.24,7.23,7.22S68.26,164.66,64.28,164.66L64.28,164.66z M64.28,164.66"/>
		<path d="M238.45,137.82l-3.9-31.84c-0.77-6.09-6.12-10.57-12.25-10.24l-8.61,0.48l-26.62-24c-2.56-2.3-5.87-3.58-9.31-3.58h-54.07
			c-12.15,0-23.93,4.16-33.38,11.74l-30.19,24.25l-40.59,10.14c-5.17,1.31-8.86,5.97-8.86,11.38v11.67c-1.72,0-3.1,1.38-3.1,3.1
			v15.5c0,2.18,1.78,3.98,3.98,3.98h22.9c-0.07-0.99-0.29-1.94-0.29-2.96c0-16.63,13.49-30.09,30.12-30.09
			c16.63,0,30.09,13.46,30.09,30.09c0,1.02-0.22,1.97-0.33,2.96h63.46c-0.11-0.99-0.3-1.94-0.3-2.96
			c0-16.63,13.46-30.09,30.09-30.09c16.63,0,30.09,13.46,30.09,30.09c0,1.02-0.19,1.97-0.3,2.96h21.37c2.19,0,3.98-1.79,3.98-3.98
			v-14.59C242.46,139.61,240.68,137.82,238.45,137.82L238.45,137.82z M158.19,98.69l-75.41,3.83l14.44-11.6
			c7.83-6.35,17.57-9.77,27.67-9.77h33.3V98.69z M170.74,98.07V81.18h4.92c1.68,0,3.31,0.63,4.59,1.76l15.39,13.85L170.74,98.07z
			 M170.74,98.07"/>
		<path d="M187.33,133.48c-13.24,0-23.96,10.72-23.96,23.96c0,13.2,10.72,23.93,23.96,23.93c13.2,0,23.88-10.73,23.88-23.93
			C211.21,144.2,200.53,133.48,187.33,133.48L187.33,133.48z M187.33,164.66c-4.01,0-7.25-3.25-7.25-7.23s3.24-7.22,7.25-7.22
			c3.94,0,7.18,3.24,7.18,7.22S191.26,164.66,187.33,164.66L187.33,164.66z M187.33,164.66"/>
	</g>
</g>
<g id="Eventos" class="st0">
	<g class="st1">
		<g>
			<path d="M55.14,105.88l-23.45,62.55v0c5.74,22.93,18.35,43.19,36.21,58.48l29.42-11.03C66.06,187.9,50.64,146.72,55.14,105.88
				L55.14,105.88z M55.14,105.88"/>
			<path d="M23.75,189.61L5.77,237.54c-2.15,5.73,3.45,11.39,9.22,9.22l37.92-14.22C40.19,220.2,30.32,205.48,23.75,189.61
				L23.75,189.61z M23.75,189.61"/>
		</g>
		<path d="M105.41,100.05L78.68,73.31C57,122.2,71.82,178.09,112.72,210.12l28.53-10.7C116.19,173.54,102.64,137.42,105.41,100.05
			L105.41,100.05z M105.41,100.05"/>
		<g>
			<path d="M119.4,114.03c1.1,30.39,14.33,59.11,36.72,79.81h0.01l20.91-7.84c4.88-1.83,6.22-8.1,2.55-11.77L119.4,114.03z
				 M119.4,114.03"/>
			<path d="M171.7,136.53c2.8,2.8,7.33,2.8,10.13,0c26.94-26.94,53.18-18.61,53.44-18.52c3.75,1.25,7.81-0.78,9.06-4.53
				c1.25-3.75-0.78-7.81-4.53-9.06c-1.41-0.47-34.97-11.15-68.1,21.99C168.91,129.2,168.91,133.73,171.7,136.53L171.7,136.53z
				 M171.7,136.53"/>
			<path d="M126.13,80.82c33.13-33.13,22.45-66.68,21.99-68.1c-1.25-3.75-5.31-5.78-9.06-4.53c-3.75,1.25-5.78,5.3-4.53,9.06
				c0.08,0.26,8.42,26.5-18.53,53.44c-2.78,2.78-2.81,7.31,0,10.13C118.81,83.64,123.34,83.61,126.13,80.82L126.13,80.82z
				 M126.13,80.82"/>
			<path d="M141.32,96.02c-2.8,2.79-2.8,7.33,0,10.13c2.77,2.77,7.27,2.81,10.09,0.04c3.7-1.84,15.18,5.07,21.57-1.31
				c6.31-6.31-0.4-17.56,1.28-21.51c3.95-1.68,15.19,5.03,21.51-1.28c6.31-6.31-0.39-17.56,1.28-21.51
				c3.95-1.68,15.19,5.03,21.51-1.28c6.31-6.31-0.4-17.56,1.28-21.51c3.93-1.67,15.2,5.03,21.51-1.28
				c6.38-6.38-0.52-17.89,1.31-21.57c2.76-2.8,2.74-7.3-0.04-10.09c-2.8-2.8-7.33-2.8-10.13,0c-5.65,5.65-4.54,13.62-3.48,19.31
				c-5.7-1.06-13.67-2.17-19.31,3.48c-5.65,5.65-4.54,13.61-3.48,19.31c-5.7-1.06-13.67-2.17-19.31,3.48
				c-5.65,5.65-4.54,13.62-3.48,19.31c-5.7-1.06-13.67-2.17-19.31,3.48c-5.65,5.65-4.54,13.61-3.48,19.31
				C154.93,91.48,146.96,90.37,141.32,96.02L141.32,96.02z M141.32,96.02"/>
		</g>
		<path d="M181.83,35.25c2.8-2.8,2.8-7.33,0-10.13c-2.8-2.8-7.33-2.8-10.13,0c-2.79,2.8-2.79,7.33,0,10.13
			C174.5,38.04,179.03,38.04,181.83,35.25L181.83,35.25z M181.83,35.25"/>
		<path d="M234.57,80.83c0,3.95-3.21,7.16-7.16,7.16c-3.95,0-7.16-3.21-7.16-7.16c0-3.96,3.21-7.16,7.16-7.16
			C231.37,73.66,234.57,76.87,234.57,80.83L234.57,80.83z M234.57,80.83"/>
		<path d="M212.22,146.66c-2.8,2.8-2.8,7.33,0,10.13c2.8,2.8,7.33,2.8,10.13,0c2.8-2.8,2.8-7.33,0-10.13
			C219.55,143.86,215.01,143.86,212.22,146.66L212.22,146.66z M212.22,146.66"/>
		<path d="M110.93,45.38c2.8-2.8,2.8-7.33,0-10.13c-2.8-2.8-7.33-2.8-10.13,0c-2.8,2.8-2.8,7.33,0,10.13
			C103.6,48.17,108.14,48.17,110.93,45.38L110.93,45.38z M110.93,45.38"/>
	</g>
</g>
<g id="Central_de_avastos" class="st0">
	<g class="st1">
		<path d="M53.59,55.58h47.6c0,8.76-7.1,15.87-15.87,15.87H69.46C60.7,71.45,53.59,64.34,53.59,55.58L53.59,55.58z M53.59,55.58"/>
		<path d="M101.2,55.58h47.6c0,8.76-7.1,15.87-15.87,15.87h-15.87C108.3,71.45,101.2,64.34,101.2,55.58L101.2,55.58z M101.2,55.58"
			/>
		<g>
			<path d="M148.8,55.58h47.6c0,8.76-7.1,15.87-15.87,15.87h-15.87C155.91,71.45,148.8,64.34,148.8,55.58L148.8,55.58z M148.8,55.58
				"/>
			<path d="M240.04,55.58c-0.01,4.21-1.68,8.24-4.64,11.23c-2.02,1.99-4.52,3.41-7.26,4.13c-1.29,0.35-2.63,0.53-3.97,0.52h-11.9
				c-8.76,0-15.87-7.11-15.87-15.87h27.77c2.19,0,3.97-1.78,3.97-3.97c0-2.19-1.78-3.97-3.97-3.97H199.1l-6.94-17.34
				c-0.52-1.32-1.71-2.26-3.11-2.46c-1.4-0.2-2.81,0.36-3.69,1.47c-0.88,1.11-1.1,2.61-0.57,3.93l5.75,14.4h-37.77v-7.94
				c0-2.19-1.78-3.97-3.97-3.97c-2.19,0-3.97,1.78-3.97,3.97v7.94h-39.67v-7.94c0-2.19-1.78-3.97-3.97-3.97
				c-2.19,0-3.97,1.78-3.97,3.97v7.94H59.47l5.75-14.4c0.81-2.04-0.18-4.35-2.22-5.16c-2.04-0.81-4.35,0.19-5.16,2.22L50.9,47.64
				H25.83c-2.19,0-3.97,1.78-3.97,3.97c0,2.19,1.78,3.97,3.97,3.97h27.77c0,8.76-7.11,15.87-15.87,15.87h-11.9
				c-1.34,0.01-2.68-0.16-3.97-0.52c-2.74-0.72-5.24-2.14-7.26-4.13c-2.97-2.98-4.64-7.02-4.64-11.23c0.01-2.59,0.75-5.12,2.14-7.3
				l19.79-31.1c3.62-5.73,9.92-9.21,16.7-9.2H201.4c6.78,0,13.08,3.47,16.7,9.2l19.79,31.1C239.29,50.46,240.04,52.99,240.04,55.58
				L240.04,55.58z M240.04,55.58"/>
		</g>
		<path d="M17.89,158.72h214.22c4.4,0,7.93,3.54,7.93,7.94s-3.54,7.93-7.93,7.93H17.89c-4.4,0-7.93-3.54-7.93-7.93
			S13.5,158.72,17.89,158.72L17.89,158.72z M17.89,158.72"/>
		<path d="M19.88,182.52h210.25c1.1,0,1.99,0.89,1.99,1.99v31.73c0,1.1-0.89,1.98-1.99,1.98H19.88c-1.1,0-1.99-0.89-1.99-1.98
			v-31.73C17.89,183.41,18.78,182.52,19.88,182.52L19.88,182.52z M19.88,182.52"/>
		<path d="M37.73,79.38v69.42c0,1.1-0.89,1.98-1.98,1.98h-11.9c-1.1,0-1.98-0.89-1.98-1.98V79.06c1.31,0.21,2.64,0.31,3.97,0.32
			H37.73z M37.73,79.38"/>
		<path d="M228.14,79.06v69.74c0,1.1-0.89,1.98-1.98,1.98h-11.9c-1.09,0-1.98-0.89-1.98-1.98V79.38h11.9
			C225.5,79.38,226.83,79.27,228.14,79.06L228.14,79.06z M228.14,79.06"/>
		<path d="M57.56,126.98h71.41c2.19,0,3.97,1.78,3.97,3.97v17.85c0,1.1-0.89,1.98-1.98,1.98H55.58c-1.1,0-1.98-0.89-1.98-1.98
			v-17.85C53.59,128.76,55.37,126.98,57.56,126.98L57.56,126.98z M57.56,126.98"/>
		<path d="M57.56,87.31H89.3c2.2,0,3.97,1.77,3.97,3.97v7.93c0,2.2-1.77,3.97-3.97,3.97H57.56c-2.2,0-3.97-1.77-3.97-3.97v-7.93
			C53.59,89.08,55.36,87.31,57.56,87.31L57.56,87.31z M57.56,87.31"/>
		<path d="M67.48,107.15h11.9c1.1,0,1.98,0.89,1.98,1.98v11.9c0,1.1-0.88,1.98-1.98,1.98h-11.9c-1.1,0-1.99-0.89-1.99-1.98v-11.9
			C65.49,108.03,66.38,107.15,67.48,107.15L67.48,107.15z M67.48,107.15"/>
		<path d="M168.64,119.05l3.75,30c0.13,1,0.98,1.75,1.98,1.74h12.37c1,0.01,1.86-0.74,1.98-1.74l3.72-30H168.64z M168.64,119.05"/>
		<path d="M17.89,226.16h214.22c4.4,0,7.93,3.54,7.93,7.94s-3.54,7.93-7.93,7.93H17.89c-4.4,0-7.93-3.54-7.93-7.93
			S13.5,226.16,17.89,226.16L17.89,226.16z M17.89,226.16"/>
	</g>
</g>
<g id="Servicios_Funebres" class="st0">
	<g class="st1">
		<path d="M97.51,77.04c-9.88-13.72-11.32-31.64-3.76-46.77c6.37-12.75,19.19-20.66,33.44-20.66c14.25,0,27.06,7.92,33.44,20.66
			c7.56,15.12,6.12,33.04-3.76,46.77l-20.79,28.87l22.21,30.55l26.27-43.53l0.11-0.18c10.67-18.93,10.49-41.43-0.47-60.19
			C173.23,13.8,153.72,2.6,131.98,2.6l-4.79,0.01V2.6h-4.8c-21.73,0-41.24,11.2-52.2,29.96c-10.96,18.76-11.14,41.26-0.47,60.19
			l93.3,154.66l41.25-23.2L97.51,77.04z M97.51,77.04"/>
		<path d="M93.18,159.84l-47.44,61.89l45.62,25.67l27.46-45.52L93.18,159.84z M93.18,159.84"/>
	</g>
</g>
<g id="Religion" class="st0">
	<g class="st1">
		<path d="M3.32,245.4h59.16v-93.38L3.32,173.87V245.4z M25.77,183.28h14.26v14.26H25.77V183.28z M25.77,213.38h14.26v14.26H25.77
			V213.38z M25.77,213.38"/>
		<path d="M76.74,97.65h96.52l-41.13-48.3V30.61h13.23V16.35h-13.23V4.6h-14.26v11.75h-13.23v14.26h13.23v18.74L76.74,97.65z
			 M76.74,97.65"/>
		<path d="M76.74,245.4h18.77v-56.29c0-16,13.02-29.02,29.02-29.02c16,0,29.02,13.02,29.02,29.02v56.29h19.71v-133.5H76.74V245.4z
			 M76.74,245.4"/>
		<path d="M124.53,174.35c-8.14,0-14.76,6.62-14.76,14.76v56.29h29.53v-56.29C139.29,180.97,132.67,174.35,124.53,174.35
			L124.53,174.35z M124.53,174.35"/>
		<path d="M187.52,152.02v93.38h59.16v-71.54L187.52,152.02z M224.23,227.64h-14.26v-14.26h14.26V227.64z M224.23,197.54h-14.26
			v-14.26h14.26V197.54z M224.23,197.54"/>
	</g>
</g>
<g id="Turismo" class="st0">
	<g class="st1">
		<path d="M138.72,56.72l-37.9-53.62L78.5,11.23l21.66,59.52L138.72,56.72z M138.72,56.72"/>
		<g>
			<path d="M41.39,92.15L18.65,66.72L3.77,72.13L14.6,101.9L41.39,92.15z M41.39,92.15"/>
			<path d="M245.27,64.28c-2.87-7.9-11.39-12.06-19.35-9.7l-23.26,8.36l-2.71-7.44l16.44-5.91l-6.56-3.99
				c-4.11-2.5-9.13-3-13.66-1.36L17.31,109.33l8.12,22.32l83.88-1.04l11.16-4.06l23.02,63.25l22.33-8.12l-5.77-69.52l75.76-27.57
				C244.03,81.59,248.26,72.5,245.27,64.28L245.27,64.28z M151.58,73.11l2.71,7.44l-7.44,2.71l-2.71-7.44L151.58,73.11z
				 M136.7,78.52l2.71,7.44l-7.44,2.71l-2.71-7.44L136.7,78.52z M121.82,83.94l2.71,7.44l-7.44,2.71l-2.71-7.44L121.82,83.94z
				 M57.57,115.75l-2.71-7.44l7.44-2.71l2.71,7.44L57.57,115.75z M72.45,110.33l-2.71-7.44l7.44-2.71l2.71,7.44L72.45,110.33z
				 M87.32,104.92l-2.7-7.44l7.44-2.71l2.71,7.44L87.32,104.92z M102.2,99.5l-2.71-7.44l7.44-2.71l2.71,7.44L102.2,99.5z
				 M161.73,77.83l-2.71-7.44l7.44-2.71l2.71,7.44L161.73,77.83z M176.61,72.42l-2.71-7.44l7.44-2.71l2.71,7.44L176.61,72.42z
				 M176.61,72.42"/>
		</g>
		<path d="M73.53,211.26h67.3v-7.92h-67.3c-8.73,0-15.84-7.1-15.84-15.84c0-8.73,7.1-15.84,15.84-15.84h24.48
			c1.64,4.6,5.99,7.92,11.15,7.92c6.56,0,11.88-5.32,11.88-11.88c0-6.56-5.32-11.88-11.88-11.88c-5.16,0-9.51,3.32-11.15,7.92H73.53
			c-13.1,0-23.75,10.65-23.75,23.75C49.78,200.61,60.43,211.26,73.53,211.26L73.53,211.26z M73.53,211.26"/>
		<rect x="148.75" y="203.34" width="7.92" height="7.92"/>
		<path d="M198.24,203.34h-33.65v7.92h33.65c5.46,0,9.9,4.44,9.9,9.9c0,5.46-4.44,9.9-9.9,9.9H73.53v7.92h124.71
			c9.82,0,17.82-7.99,17.82-17.82S208.06,203.34,198.24,203.34L198.24,203.34z M198.24,203.34"/>
		<path d="M18.11,223.14c-6.56,0-11.88,5.32-11.88,11.88c0,6.56,5.32,11.88,11.88,11.88c5.16,0,9.51-3.32,11.15-7.92h36.36v-7.92
			H29.25C27.62,226.46,23.27,223.14,18.11,223.14L18.11,223.14z M18.11,223.14"/>
	</g>
</g>
<g id="Plaza" class="st0">
	<g class="st1">
		<path class="st37" d="M114.47,239.52l88.24-100.21c3.32-3.32,4.2-6.19,3.68-9.01l-4.07-61.9c3.71-2.48,7.79-5.82,11.5-8.66
			c10.39-9.14,19.04-18.16,24.71-25.58c3.34-4.58,5.82-8.64,7.43-12.36c2.08-5.79,1.7-10.37-1.13-14.08
			c-0.48-0.38-1.36-0.73-1.72-1.6c-5.31-3.71-15.19-2.1-26.81,3.72c-9.9,4.93-21.39,13.2-33,22.71c-1.24,1.24-1.96,1.98-3.34,3.21
			h-0.38l-75.02,4.58c-2.96,0.38-5.79,1.59-8.63,4.93L7.59,145.5c-6.92,7.77-6.56,20.63,1.72,27.67l77.12,67.61
			C95.06,248.18,107.43,247.31,114.47,239.52L114.47,239.52z M195.27,41.58c9.89-7.79,19.39-14.47,27.68-18.54
			c3.23-2.1,6.21-3.34,8.19-4.2c-4.85,9.87-18.91,21.87-27.08,28.89C198.63,52.83,204.55,49.85,195.27,41.58L195.27,41.58z
			 M178.38,83.6L178.38,83.6c-10.3,4.94-19.43,5.79-24.38,2.09c-0.35-0.38-0.72-0.86-1.6-1.24c-2.83-3.7-3.34-8.66-1.24-13.94
			c1.24-2.5,2.48-5.45,4.58-8.28c-5.44,0-11.13,2.44-15.33,7.02c-7.77,9.02-6.53,22.62,2.11,30.53c9.01,7.77,22.59,6.91,30.49-1.73
			C176.73,93.95,178.38,88.53,178.38,83.6L178.38,83.6z M170.08,66.81L170.08,66.81c-1.62,2.44-3.21,4.41-4.09,6.53
			c1.59-0.86,4.09-2.12,7.44-3.71c-0.88-0.86-1.65-1.62-2.5-2.08L170.08,66.81z M233.59,17.22L233.59,17.22 M118.55,163.4
			L118.55,163.4c-3.7-3.96-5.69-8.27-6.3-12.97c-0.62-4.58,0.86-8.88,4.95-12.35c3.44-3.46,7.39-4.84,12.34-4.34
			c4.57,0.38,9.28,2.96,13.85,7.81c4.32,4.55,6.66,9.49,6.66,14.44c0,4.58-1.73,8.65-5.21,11.73c-3.43,3.23-7.52,4.7-12.1,4.06
			C128.07,171.56,123.49,168.59,118.55,163.4L118.55,163.4z M121.75,142.67L121.75,142.67c-1.72,1.48-2.58,3.82-2.35,6.05
			c0.38,2.58,2.35,6.02,5.82,9.87c3.46,3.69,6.32,5.71,8.89,6.06c2.6,0.23,4.71-0.36,6.43-1.72c1.72-1.74,2.61-3.84,2.23-6.44
			c-0.24-2.6-2.23-5.67-5.69-9.51c-3.44-3.72-6.4-5.67-9.01-5.94C125.47,140.45,123.49,141.03,121.75,142.67L121.75,142.67z
			 M108.53,201.49L108.53,201.49l-24.2-88.11l5.43-5.2l24.46,87.83L108.53,201.49z M54.67,167.73L54.67,167.73
			c-3.84-3.96-5.81-8.29-6.44-13.24c-0.48-4.56,1.26-8.63,4.95-12.33c3.47-3.21,7.79-4.55,12.36-4.32
			c4.68,0.24,9.25,2.82,13.83,7.77c4.33,4.82,6.68,9.52,6.68,14.35c0,4.68-1.72,8.63-5.19,11.82c-3.46,3.24-7.53,4.57-12.1,4.36
			C64.18,175.52,59.49,172.93,54.67,167.73L54.67,167.73z M57.73,146.74L57.73,146.74c-1.71,1.72-2.21,3.7-2.21,6.3
			c0.24,2.58,2.21,5.81,6.07,9.89c3.07,3.46,6.04,5.43,8.63,5.67c2.59,0.64,4.57,0,6.32-1.74c1.74-1.35,2.58-3.7,2.34-6.05
			c-0.35-2.59-2.34-5.67-5.81-9.76c-3.47-3.69-6.3-5.81-8.9-6.05C61.6,144.75,59.49,145.23,57.73,146.74L57.73,146.74z"/>
	</g>
</g>
<g id="Oficna" class="st0">
	<g class="st1">
		<path d="M3.83,119.54v14.2h20.06v9.47c0,5.23,4.24,9.47,9.47,9.47h62.11c5.23,0,9.47-4.24,9.47-9.47v-9.47h112.83v78.1
			c0,3.92,3.18,7.1,7.1,7.1h0c3.92,0,7.1-3.18,7.1-7.1v-78.1h7.1c3.92,0,7.1-3.18,7.1-7.1v0c0-3.92-3.18-7.1-7.1-7.1H3.83z
			 M3.83,119.54"/>
		<path d="M33.36,166.88h62.11c5.23,0,9.47,4.24,9.47,9.47v0c0,5.23-4.24,9.47-9.47,9.47H33.36c-5.23,0-9.47-4.24-9.47-9.47v0
			C23.89,171.11,28.13,166.88,33.36,166.88z"/>
		<path d="M33.36,200.01h62.11c5.23,0,9.47,4.24,9.47,9.47v0c0,5.23-4.24,9.47-9.47,9.47H33.36c-5.23,0-9.47-4.24-9.47-9.47v0
			C23.89,204.25,28.13,200.01,33.36,200.01z"/>
		<path d="M61.92,105.34L40.66,84.08l19.95-19.95c-0.03,5.45,2.02,10.91,6.18,15.06l10.45,10.45l29.87-29.87L96.65,49.33
			c-6.49-6.49-16.14-7.87-23.98-4.15L58.56,31.06L48.52,41.1l7.52,7.52L23.67,80.98v6.19l18.17,18.17H61.92z M61.92,105.34"/>
		<path d="M182.89,105.34h5.38c2.43,0,4.41-1.97,4.41-4.41v-9.79h25.9c2.43,0,4.41-1.97,4.41-4.41V43.04c0-2.43-1.97-4.41-4.41-4.41
			h-65.99c-2.43,0-4.41,1.97-4.41,4.41v43.69c0,2.43,1.97,4.41,4.41,4.41h25.9v9.79C178.49,103.37,180.46,105.34,182.89,105.34z
			 M178.49,105.34"/>
	</g>
</g>
</svg>
